<?xml version="1.0" encoding="UTF-8" standalone="no"?>
<!-- Created with Inkscape (http://www.inkscape.org/) -->

<svg
   version="1.1"
   id="svg2"
   width="1000"
   height="666.66669"
   viewBox="0 0 1000 666.66669"
   sodipodi:docname="9385190.ai"
   xmlns:inkscape="http://www.inkscape.org/namespaces/inkscape"
   xmlns:sodipodi="http://sodipodi.sourceforge.net/DTD/sodipodi-0.dtd"
   xmlns="http://www.w3.org/2000/svg"
   xmlns:svg="http://www.w3.org/2000/svg">
  <defs
     id="defs6">
    <clipPath
       clipPathUnits="userSpaceOnUse"
       id="clipPath18">
      <path
         d="M 0,0 H 750 V 500 H 0 Z"
         id="path16" />
    </clipPath>
    <clipPath
       clipPathUnits="userSpaceOnUse"
       id="clipPath30">
      <path
         d="M 91.8971,506.465 H 363.778 V 216.78 H 91.8971 Z"
         id="path28" />
    </clipPath>
    <clipPath
       clipPathUnits="userSpaceOnUse"
       id="clipPath78">
      <path
         d="M -158.33,565.123 H 150.34 V 112.221 h -308.67 z"
         id="path76" />
    </clipPath>
    <clipPath
       clipPathUnits="userSpaceOnUse"
       id="clipPath126">
      <path
         d="M -199.64,333.704 H 684.8 v -538.618 h -884.44 z"
         id="path124" />
    </clipPath>
    <clipPath
       clipPathUnits="userSpaceOnUse"
       id="clipPath174">
      <path
         d="M -1.4053,216.349 H 547.347 V -117.579 H -1.4053 Z"
         id="path172" />
    </clipPath>
    <clipPath
       clipPathUnits="userSpaceOnUse"
       id="clipPath226">
      <path
         d="M 384.415,625.476 H 941.219 V 19.8571 H 384.415 Z"
         id="path224" />
    </clipPath>
  </defs>
  <sodipodi:namedview
     id="namedview4"
     pagecolor="#ffffff"
     bordercolor="#000000"
     borderopacity="0.25"
     inkscape:showpageshadow="2"
     inkscape:pageopacity="0.0"
     inkscape:pagecheckerboard="0"
     inkscape:deskcolor="#d1d1d1" />
  <g
     id="g8"
     inkscape:groupmode="layer"
     inkscape:label="9385190"
     transform="matrix(1.3333333,0,0,-1.3333333,0,666.66667)">
    <path
       d="M 0,0 H 750 V 500 H 0 Z"
       style="fill:#f2f2f2;fill-opacity:1;fill-rule:nonzero;stroke:none"
       id="path10" />
    <g
       id="g12">
      <g
         id="g14"
         clip-path="url(#clipPath18)">
        <g
           id="g20"
           transform="translate(149.7781,421.1843)">
          <path
             d="m 0,0 c 29.956,39.739 66.575,32.711 98.079,72.595 3.646,4.575 6.957,9.411 10.069,14.376 l 0.564,-0.338 C 85.25,46.688 61.203,45.094 26.265,23.213 16.481,16.789 7.85,8.731 0.519,-0.403 Z"
             style="fill:#4d4d4d;fill-opacity:1;fill-rule:nonzero;stroke:none"
             id="path22" />
        </g>
        <g
           id="g24">
          <g
             id="g26" />
          <g
             id="g70">
            <g
               clip-path="url(#clipPath30)"
               id="g68">
              <g
                 transform="translate(92.2723,261.3074)"
                 id="g34">
                <path
                   d="m 0,0 c -3.99,49.798 24.478,94.586 55.186,131.271 15.208,18.816 31.196,38.061 52.946,49.619 14.019,8.088 29.072,14.455 41.88,24.476 12.861,9.819 24.502,21.366 38.562,29.581 13.863,8.191 30.868,12.907 46.773,8.558 24.328,-6.778 37.648,-33.499 36.025,-57.523 C 269.395,152.9 248.169,125.752 233.824,97.1 215.169,61.481 197.574,23.303 165.749,-2.694 c -12.617,-10.338 -27.52,-17.386 -42.581,-23.35 -15.016,-6.08 -30.321,-11.935 -46.427,-14.385 -7.925,-1.216 -16.549,-1.53 -24.225,-1.446 -3.317,-0.632 -6.643,-1.236 -9.99,-1.73 C 11.693,-49.473 1.942,-26.452 0,0 m 0.655,0.053 c 1.993,-25.861 11.285,-48.76 41.754,-42.865 3.341,0.5 6.668,1.111 9.992,1.752 8.098,-0.053 16.213,0.277 24.211,1.488 16.016,2.464 31.248,8.321 46.201,14.403 23.66,9.121 43.007,20.699 59.766,40.012 26.969,30.527 42.093,68.998 62.319,103.907 11.954,20.839 24.589,42.739 26.001,67.256 2.038,34.406 -23.283,65.542 -59.637,57.367 -24.371,-5.002 -41.869,-23.914 -60.806,-38.589 C 131.222,189.832 107.145,182.413 88.633,166.426 76.387,155.864 66.158,143.198 55.869,130.709 25.23,94.197 -3.235,49.653 0.655,0.053"
                   style="fill:#4d4d4d;fill-opacity:1;fill-rule:nonzero;stroke:none"
                   id="path32" />
              </g>
              <g
                 transform="translate(277.9452,292.527)"
                 id="g38">
                <path
                   d="m 0,0 c -14.268,-20.717 -33.614,-38.172 -57.068,-47.728 -11.562,-4.903 -23.2,-9.67 -35.268,-13.205 -12.062,-3.641 -24.722,-5.011 -37.296,-4.797 -5.833,-0.993 -12.756,-2.476 -19.076,-2.094 -22.451,1.228 -27.363,26.304 -27.844,44.615 -1.102,52.928 35.416,96.104 68.737,133.459 8.695,9.468 19.085,17.237 30.353,23.39 11.142,6.321 22.936,11.52 33.266,19.082 10.343,7.508 19.589,16.476 30.197,23.752 15.443,10.937 36.52,17.948 54.605,9.405 14.8,-7.138 23.872,-22.763 25.742,-38.742 1.025,-9.618 -0.215,-19.438 -3.013,-28.651 C 57.863,99.925 47.193,83.601 37.991,66.772 25.742,44.301 14.78,20.996 0,0 m -0.537,0.379 c 14.711,21.001 25.602,44.299 37.796,66.791 9.136,16.803 19.758,33.088 25.175,51.583 3.192,10.606 4.372,22.053 2.145,32.962 -2.746,13.933 -11.4,27.06 -24.357,33.368 -11.558,5.578 -25.301,4.42 -37.022,-0.144 -18.128,-6.976 -31.547,-21.486 -47.024,-32.732 -15.678,-11.248 -34.188,-17.629 -49.503,-29.377 -10.184,-7.763 -18.646,-17.515 -26.878,-27.265 -20.469,-24.338 -40.601,-50.241 -50.119,-81.024 -5.754,-18.221 -7.373,-37.982 -3.071,-56.673 2.136,-9.112 6.782,-18.5 15.629,-22.561 8.899,-4.091 18.9,-1.637 28.144,-0.121 6.254,-0.064 12.517,0.151 18.72,0.89 12.439,1.475 24.431,5.409 36.095,9.872 33.561,12.283 53.311,24.85 74.27,54.431"
                   style="fill:#4d4d4d;fill-opacity:1;fill-rule:nonzero;stroke:none"
                   id="path36" />
              </g>
              <g
                 transform="translate(266.5797,291.7212)"
                 id="g42">
                <path
                   d="m 0,0 c -12.744,-18.159 -29.915,-33.414 -50.61,-41.794 -10.213,-4.296 -20.484,-8.46 -31.142,-11.537 -5.333,-1.51 -10.771,-2.729 -16.293,-3.372 -5.517,-0.657 -11.07,-0.862 -16.615,-0.803 -2.265,-0.366 -5.632,-0.993 -8.264,-1.263 -16.83,-2.706 -27.125,6.122 -30.776,22.253 -8.896,39.702 12.33,78.232 36.867,107.978 10.804,12.869 21.028,26.567 34.473,36.85 13.444,10.247 29.711,15.981 43.447,25.683 17.708,12.988 34.523,31.496 58.058,32.051 21.484,0.932 36.908,-16.9 39.295,-37.201 C 60.652,108.823 51.513,89.938 41.971,72.982 27.718,48.802 16.348,22.963 0,0 m -0.534,0.383 c 16.228,22.907 27.562,48.843 41.747,73.025 10.044,17.926 19.832,38.429 15.543,59.426 -2.434,12.195 -10.071,23.648 -21.431,29.13 -15.595,7.328 -33.758,1.345 -47.194,-7.958 -9.309,-6.236 -17.492,-14.006 -26.676,-20.529 -9.204,-6.557 -19.573,-11.078 -29.338,-16.564 -9.873,-5.344 -18.984,-11.996 -26.672,-20.206 -29.265,-32.44 -61.21,-70.278 -60.394,-116.428 0.6,-13.189 2.617,-29.783 15.663,-36.419 7.738,-3.685 16.53,-1.707 24.638,-0.449 5.51,-0.067 11.032,0.127 16.498,0.768 10.964,1.283 21.548,4.698 31.845,8.592 29.446,10.637 47.219,21.855 65.771,47.612"
                   style="fill:#4d4d4d;fill-opacity:1;fill-rule:nonzero;stroke:none"
                   id="path40" />
              </g>
              <g
                 transform="translate(255.2137,290.9148)"
                 id="g46">
                <path
                   d="m 0,0 c -16.128,-22.047 -32.124,-32.127 -57.51,-41.184 -13.42,-5.257 -27.692,-8.593 -42.178,-8.098 -9.381,-1.626 -20.154,-3.006 -27.31,5.425 -6.441,7.604 -7.501,18.021 -7.87,27.578 -0.289,39.865 27.564,72.142 52.925,100.064 6.656,7.039 14.617,12.733 23.109,17.349 8.416,4.735 17.299,8.636 25.2,14.142 11.756,8.271 22.188,19.086 35.927,24.248 14.271,5.547 30.002,3.561 39.901,-8.941 C 55.309,114.4 51.598,92.767 43.203,75.336 39.136,66.539 34.033,58.311 29.408,49.863 20.111,32.99 11.441,15.633 0,0 m -0.53,0.389 c 11.349,15.604 19.953,32.953 29.209,49.875 4.614,8.487 9.687,16.706 13.703,25.453 5.009,10.837 8.602,22.724 7.166,34.715 -1.453,11.755 -8.189,23.235 -19.121,28.413 -13.404,6.221 -28.964,1.169 -40.583,-6.702 -8.051,-5.273 -15.157,-11.87 -23.116,-17.391 -7.987,-5.527 -16.893,-9.4 -25.296,-14.096 -4.215,-2.33 -8.345,-4.821 -12.222,-7.671 -11.644,-8.643 -20.53,-20.319 -29.79,-31.35 -18.012,-22.054 -34.086,-48.523 -33.528,-77.898 0.238,-13.436 3.885,-31.788 20.084,-33.21 4.773,-0.432 9.617,0.421 14.351,1.11 14.388,-0.518 28.522,2.759 41.873,7.958 25.311,8.979 41.147,18.878 57.27,40.794"
                   style="fill:#4d4d4d;fill-opacity:1;fill-rule:nonzero;stroke:none"
                   id="path44" />
              </g>
              <g
                 transform="translate(243.8468,290.1073)"
                 id="g50">
                <path
                   d="m 0,0 c -9.68,-13.048 -22.518,-23.885 -37.688,-29.923 -11.237,-4.559 -22.706,-9.141 -34.851,-10.574 -3.929,-0.473 -8.446,-0.626 -12.1,-0.555 -5.98,-0.823 -12.518,-1.807 -18.081,1.206 -9.467,5.252 -11.088,17.206 -11.302,27.02 0.115,33.328 23.626,60.172 45.024,83.363 11.174,12.015 27.15,17.353 40.64,26.024 9.928,6.781 18.812,15.667 30.334,19.895 11.879,4.55 25.251,2.902 33.54,-7.446 C 52.543,87.487 36.586,61.359 25.116,41.407 17.293,27.318 9.79,12.919 0,0 m -0.524,0.397 c 9.699,12.893 17.133,27.281 24.913,41.412 3.869,7.093 8.096,13.978 11.414,21.306 6.78,14.277 9.729,32.191 -1.01,45.298 -7.996,10.074 -20.979,11.689 -32.547,7.306 -11.483,-4.176 -20.252,-12.917 -30.249,-19.688 -13.577,-8.667 -29.431,-13.842 -40.671,-25.818 -21.338,-22.98 -44.596,-49.947 -44.592,-83.03 0.262,-9.526 1.816,-21.194 10.97,-26.234 5.381,-2.859 11.719,-1.85 17.522,-1.09 4.045,-0.06 8.113,0.076 12.134,0.529 12.052,1.394 23.448,5.924 34.639,10.425 15.104,5.969 27.811,16.644 37.477,29.584"
                   style="fill:#4d4d4d;fill-opacity:1;fill-rule:nonzero;stroke:none"
                   id="path48" />
              </g>
              <g
                 transform="translate(232.4785,289.298)"
                 id="g54">
                <path
                   d="m 0,0 c -8.152,-10.483 -18.809,-19.116 -31.222,-23.984 -9.209,-3.675 -18.632,-7.274 -28.561,-8.409 -3.205,-0.374 -6.934,-0.505 -9.891,-0.434 -3.264,-0.374 -6.56,-0.721 -9.844,-0.166 -10.952,1.85 -13.815,14.108 -13.655,23.606 0.521,26.799 19.669,48.209 37.12,66.666 9.222,9.408 21.967,13.843 32.963,20.58 5.427,3.507 10.378,7.774 15.949,11.194 8.17,5.187 18.816,8.464 28.121,4.359 C 30.245,89.293 35.39,78.923 34.978,69.051 34.532,55.724 27.109,44.196 20.821,32.952 14.459,21.647 8.11,10.221 0,0 m -0.515,0.408 c 8.019,10.2 14.298,21.613 20.61,32.95 6.181,11.163 13.517,22.617 13.911,35.714 0.337,9.495 -4.481,19.521 -13.391,23.53 -9.02,4.021 -19.388,0.828 -27.371,-4.176 -5.531,-3.353 -10.489,-7.585 -15.99,-11.108 -8.32,-5.143 -17.493,-8.594 -25.507,-14.206 -8.033,-5.554 -14.21,-13.236 -20.53,-20.589 -4.168,-4.969 -8.119,-10.128 -11.598,-15.595 -6.898,-10.841 -12.049,-23.317 -12.041,-36.315 -0.082,-9.07 2.587,-21 13.065,-22.695 3.151,-0.503 6.43,-0.183 9.603,0.176 6.578,-0.17 13.178,0.517 19.544,2.224 12.526,3.656 25.375,8.032 35.78,16.14 5.175,4.065 9.816,8.796 13.915,13.95"
                   style="fill:#4d4d4d;fill-opacity:1;fill-rule:nonzero;stroke:none"
                   id="path52" />
              </g>
              <g
                 transform="translate(221.1072,288.4856)"
                 id="g58">
                <path
                   d="m 0,0 c -3.329,-3.931 -7.079,-7.518 -11.212,-10.608 -8.323,-6.173 -18.284,-9.577 -28.185,-12.301 -5.008,-1.278 -10.197,-1.819 -15.374,-1.692 -4.174,-0.456 -9.691,-0.165 -12.852,3.421 -3.473,3.203 -4.498,8.429 -4.672,13.042 -0.449,14.238 7.339,27.18 16.057,37.811 6.071,6.986 11.957,14.441 19.846,19.469 5.855,3.816 12.329,6.472 18.369,9.925 5.982,3.565 11.322,8.202 17.919,10.754 9.178,3.809 19.799,1.833 24.718,-7.459 C 31.527,48.932 22.305,34.599 15.675,23.036 11.01,15.016 6.055,7.09 0,0 m -0.501,0.426 c 5.971,7.075 10.857,14.988 15.466,23.021 4.47,7.984 9.614,16.03 10.884,25.229 C 27.987,64.51 15.334,75.215 0.177,69.094 -6.321,66.634 -11.732,62.018 -17.7,58.511 -23.762,55.092 -30.262,52.471 -36.113,48.708 -42.044,45.04 -46.797,39.867 -51.367,34.666 -63.155,21.382 -75.329,3.711 -70.447,-14.857 c 1.246,-4.245 4.621,-7.921 9.071,-8.682 2.158,-0.377 4.418,-0.312 6.61,-0.133 5.088,-0.146 10.21,0.361 15.162,1.606 9.772,2.646 19.723,5.994 27.956,12.045 4.1,3.035 7.829,6.566 11.147,10.447"
                   style="fill:#4d4d4d;fill-opacity:1;fill-rule:nonzero;stroke:none"
                   id="path56" />
              </g>
              <g
                 transform="translate(209.7289,287.6662)"
                 id="g62">
                <path
                   d="m 0,0 c -7.59,-8.183 -18.03,-12.899 -28.791,-15.292 -3.603,-0.804 -7.282,-1.184 -11.004,-1.075 -1.397,-0.042 -3.304,0.103 -4.821,0.646 -8.349,3.221 -7.845,14.239 -4.944,21.284 2.324,5.948 6.12,11.153 10.296,15.876 4.257,4.654 8.559,9.44 14.077,12.632 3.918,2.388 8.515,4.453 12.622,6.51 4.207,2.211 8.093,4.96 12.673,6.473 C 10.701,50.892 20.474,43.93 19.027,32.463 18.227,26.047 14.869,20.415 11.578,15.019 8.234,9.649 4.429,4.538 0,0 m -0.472,0.457 c 4.349,4.533 8.079,9.632 11.353,14.991 3.178,5.312 6.468,10.894 7.199,17.121 1.242,10.779 -7.649,17.264 -17.729,13.736 -5.843,-1.953 -11.183,-5.945 -16.887,-8.352 -2.848,-1.361 -5.681,-2.727 -8.381,-4.332 -5.492,-3.101 -9.826,-7.799 -14.004,-12.484 -4.11,-4.737 -7.819,-9.939 -10.044,-15.801 -2.61,-6.636 -3.301,-17.129 4.642,-20.203 1.444,-0.481 3.032,-0.59 4.585,-0.564 3.582,-0.125 7.23,0.223 10.761,0.993 10.617,2.301 20.97,6.875 28.505,14.895"
                   style="fill:#4d4d4d;fill-opacity:1;fill-rule:nonzero;stroke:none"
                   id="path60" />
              </g>
              <g
                 transform="translate(168.7904,282.4491)"
                 id="g66">
                <path
                   d="M 0,0 C -2.862,4.363 0.285,9.69 3.089,13.224 8.994,20.773 17.798,25.434 26.885,28.013 40.153,31.788 44.467,21.452 36.897,11.44 31.095,3.892 22.349,-1.313 12.998,-2.993 8.625,-3.567 2.089,-5.258 0,0 m 0.579,0.312 c 2.041,-4.902 8.189,-2.983 12.25,-2.437 9.083,1.872 17.659,6.751 23.525,13.978 7.541,9.433 3.502,19.58 -9.318,15.616 C 18.178,24.666 9.707,19.937 3.746,12.692 1.045,9.345 -2.06,4.502 0.579,0.312"
                   style="fill:#4d4d4d;fill-opacity:1;fill-rule:nonzero;stroke:none"
                   id="path64" />
              </g>
            </g>
          </g>
        </g>
        <g
           id="g72">
          <g
             id="g74" />
          <g
             id="g118">
            <g
               clip-path="url(#clipPath78)"
               id="g116">
              <g
                 transform="translate(-121.158,410.7197)"
                 id="g82">
                <path
                   d="m 0,0 c 2.993,50.437 27.97,100.101 69.994,129.009 54.93,39.315 140.686,33.557 183.239,-21.304 19.541,-25.006 23.096,-54.247 12.132,-83.775 -7.142,-19.979 -20.324,-36.896 -33.249,-53.429 -14.823,-18.648 -28.043,-36.387 -32.301,-60.449 -7.056,-35.138 -3.286,-71.616 -12.009,-106.521 -9.244,-41.358 -40.286,-76.99 -80.605,-90.553 -31.508,-14.105 -69.251,-15.74 -101.281,-1.934 -11.948,5.18 -22.936,13.127 -30.534,23.825 -10.044,14.378 -13.282,32.533 -12.427,49.79 0.478,13.031 3.06,25.929 7.158,38.277 6.394,20.691 16.137,40.182 22.319,60.919 3.473,12.48 5.537,25.347 6.382,38.266 C -0.154,-52.008 -1.751,-25.838 0,0 m 0.656,-0.044 c -1.71,-25.793 -0.086,-52.019 -1.071,-77.877 -0.831,-12.987 -2.884,-25.898 -6.355,-38.444 -6.149,-20.762 -15.884,-40.28 -22.253,-60.974 -4.069,-12.321 -6.611,-25.077 -7.072,-38.047 -1.149,-21.253 4.516,-44.176 20.787,-58.826 32.074,-28.408 84.536,-29.106 122.259,-12.098 40.141,13.435 71.053,48.832 80.31,89.975 8.755,34.863 5.062,71.339 12.151,106.469 2.629,14.575 8.841,28.256 17.15,40.466 4.819,6.917 9.982,13.572 15.143,20.221 12.867,16.517 25.987,33.394 33.076,53.322 10.825,29.257 7.279,58.331 -12.168,83.084 C 210.226,161.549 125.068,167.312 70.465,128.325 28.607,99.587 3.691,50.172 0.656,-0.044"
                   style="fill:#4d4d4d;fill-opacity:1;fill-rule:nonzero;stroke:none"
                   id="path80" />
              </g>
              <g
                 transform="translate(-12.3485,143.3729)"
                 id="g86">
                <path
                   d="m 0,0 c -30.315,-16.194 -69.704,-16.228 -98.721,2.918 -31.464,20.652 -32.931,60.71 -23.019,93.652 6.138,22.094 16.775,42.735 22.109,65.033 2.563,11.137 3.931,22.554 4.05,33.987 0.697,48.917 -4.413,89.193 21.092,134.123 17.048,30.146 44.389,54.038 77.719,64.27 43.597,13.84 96.122,1.517 125.435,-34.558 24.418,-29.419 22.62,-64.689 4.002,-96.592 -11.487,-19.898 -28.18,-36.235 -39.7,-56.049 C 87.183,196.883 83.527,186.007 81.59,174.713 75.391,140.93 79.241,105.627 68.573,72.587 58.543,39.516 32.517,11.773 0,0 M -0.271,0.599 C 32.081,12.38 57.85,39.92 67.79,72.833 c 10.59,33.022 6.692,68.26 12.859,102.056 3.859,24.72 16.348,41.405 31.42,60.419 7.037,9.03 14.099,18.08 19.843,27.963 11.393,19.529 17.911,43.273 11.939,65.608 -5.94,22.208 -22.145,40.554 -41.354,52.619 -19.436,12.046 -42.586,17.795 -65.378,17.507 -47.15,-0.838 -88.424,-28.965 -111.144,-69.555 -17.803,-31.28 -21.528,-64.15 -20.793,-99.495 -0.04,-17.17 0.895,-34.452 -1.049,-51.57 -2.776,-28.841 -17.175,-54.564 -25.003,-82.067 -10.916,-36.411 -7.579,-78.127 29.94,-97.103 28.038,-14.534 62.926,-13.366 90.659,1.384"
                   style="fill:#4d4d4d;fill-opacity:1;fill-rule:nonzero;stroke:none"
                   id="path84" />
              </g>
              <g
                 transform="translate(-10.735,162.9994)"
                 id="g90">
                <path
                   d="m 0,0 c -25.766,-16.596 -61.994,-16.707 -86.478,2.446 -21.137,16.354 -26.873,44.298 -22.026,69.539 4.74,30.284 21.452,57.426 24.584,88.031 3.495,35.328 -3.375,71.801 7.247,106.322 11.112,39.066 40.409,74.016 79.797,86.343 38.735,12.788 85.431,0.937 110.835,-31.649 13.196,-16.993 18.407,-36.528 13.794,-57.704 -4.128,-20.245 -16.246,-37.51 -28.795,-53.431 C 88.982,196.878 78.384,183.669 73.816,167.686 64.142,134.59 69.865,98.936 59.591,65.865 51.075,36.384 28.596,11.24 0,0 m -0.303,0.583 c 28.456,11.256 50.671,36.179 59.108,65.519 10.194,33.076 4.409,68.643 14.081,101.871 4.542,16.093 15.305,29.491 25.331,42.497 12.532,15.84 24.596,32.918 28.743,53.027 1.325,6.15 1.949,12.568 1.533,18.857 0,0 -0.076,1.895 -0.076,1.895 -0.18,1.657 -0.58,4.071 -0.768,5.639 -2.121,11.2 -7.25,21.755 -14.229,30.724 -25.208,32.439 -71.608,44.278 -110.156,31.633 -39.286,-12.182 -68.366,-47.168 -79.366,-86.073 -10.539,-34.525 -3.557,-70.916 -6.986,-106.251 -3.022,-30.666 -19.722,-57.818 -24.54,-88.076 -4.812,-24.96 0.748,-52.56 21.638,-68.776 24.273,-19 60.081,-18.924 85.687,-2.486"
                   style="fill:#4d4d4d;fill-opacity:1;fill-rule:nonzero;stroke:none"
                   id="path88" />
              </g>
              <g
                 transform="translate(-9.1196,182.6282)"
                 id="g94">
                <path
                   d="m 0,0 c -30.379,-23.33 -75.847,-14.021 -88.632,23.912 -6.83,17.581 -4.645,35.001 -0.212,52.815 4.35,17.291 11.475,33.789 15.496,51.134 4.028,17.431 3.113,35.389 2.913,53.15 -0.188,17.794 0.05,35.885 4.939,53.135 5.842,21.52 17.409,41.641 33.93,56.719 9.846,9.073 21.579,16.136 34.282,20.401 37.977,13.5 85.524,-2.785 103.335,-39.876 10.452,-20.883 5.856,-44.707 -5.553,-64.188 C 89.058,186.917 70.208,170.92 63.107,148.311 54.316,119.409 59.051,88.244 50.612,59.19 43.605,33.274 24.666,10.726 0,0 m -0.338,0.564 c 20.415,8.984 36.887,25.901 45.746,46.301 5.285,12.27 7.771,25.511 9.088,38.761 2.089,20.95 1.44,42.572 7.685,62.983 7.047,22.729 26.065,38.765 37.559,59.028 8.833,15.201 14.096,33.466 10.041,50.937 -6.122,26.198 -29.078,46.17 -54.437,53.378 -25.682,7.644 -54.425,2.375 -76.227,-13.062 -21.926,-15.35 -37.137,-39.214 -44.039,-64.9 -9.979,-34.692 -0.024,-71.319 -7.573,-106.315 -6.137,-25.928 -18.457,-50.473 -19.717,-77.431 -0.31,-17.479 5.637,-35.991 18.468,-48.232 19.719,-18.798 52.448,-17.893 73.406,-1.448"
                   style="fill:#4d4d4d;fill-opacity:1;fill-rule:nonzero;stroke:none"
                   id="path92" />
              </g>
              <g
                 transform="translate(-7.5019,202.26)"
                 id="g98">
                <path
                   d="m 0,0 c -16.795,-16.023 -46.262,-19.005 -62.328,-0.41 -9.295,10.629 -13.707,29.312 -13.801,43.258 0.031,5.785 1.393,11.447 2.339,17.126 0,0 1.165,5.64 1.165,5.64 l 2.995,11.105 c 0.72,2.787 2.292,8.314 3.137,11.062 4.625,14.575 8.645,29.412 8.87,44.795 0.298,15.295 -0.839,30.636 0.004,45.941 1.196,30.541 14.715,61.349 39.367,80.072 18.264,14.134 43.16,19.416 65.4,12.723 22.039,-6.38 41.278,-24.428 46.314,-47.181 3.224,-15.261 -1.228,-31.068 -8.82,-44.352 C 74.507,161.465 57.39,147.002 51.685,126.399 44.666,102.443 48.061,76.738 41.665,52.58 36.19,30.173 20.739,10.217 0,0 m -0.378,0.538 c 13.723,6.906 25.043,17.871 32.676,31.13 7.792,13.23 10.807,28.576 12.186,43.714 1.76,18.924 1.32,38.665 8.045,56.799 7.14,18.001 21.985,31.352 31.352,48.028 12.057,20.653 14.161,44.411 -0.36,64.481 -23.261,33.058 -70.099,38.019 -101.524,13.57 -24.482,-18.702 -37.852,-49.376 -38.961,-79.777 -0.794,-15.307 0.393,-30.604 0.142,-45.933 -0.174,-15.419 -4.173,-30.439 -8.768,-45.041 -1.968,-6.148 -4.391,-15.834 -6.158,-22.102 -1.129,-5.393 -2.304,-11.468 -3.12,-16.894 -1.214,-9.472 0.445,-19.043 3.02,-28.188 3.89,-15.055 13.431,-28.197 29.256,-31.756 14.936,-3.417 31.133,1.535 42.214,11.969"
                   style="fill:#4d4d4d;fill-opacity:1;fill-rule:nonzero;stroke:none"
                   id="path96" />
              </g>
              <g
                 transform="translate(-5.8815,221.8963)"
                 id="g102">
                <path
                   d="m 0,0 c -4.527,-5.153 -10.315,-9.476 -16.86,-11.745 -10.497,-3.92 -23.614,-2.784 -31.763,5.455 -7.214,7.092 -10.696,16.513 -9.486,25.886 -3.536,10.754 -0.989,22.526 1.44,33.231 3.317,16.381 9.044,32.247 11.062,48.858 1.892,16.656 -0.511,33.382 0.41,50.105 0.413,11.167 2.553,22.307 6.708,32.7 8.077,20.604 24.136,39.434 45.929,45.754 16.093,4.733 34.496,1.926 47.96,-8.254 13.509,-9.898 22.912,-26.285 21.694,-43.32 C 76.444,167.405 71.783,156.764 65.797,147.352 56.894,133.31 44.373,121.191 40.272,104.697 35.779,88.512 36.678,71.582 34.277,55.018 31.552,32.35 19.955,11.709 0,0 m -0.423,0.503 c 19.654,11.649 31.173,32.279 33.808,54.642 2.366,16.499 1.459,33.584 5.948,49.81 5.577,22.101 25.675,36.523 33.317,57.641 8.974,22.128 1.243,44.824 -17.624,58.89 -17.85,13.65 -43.961,13.644 -62.588,1.475 -23.629,-15.206 -36.168,-43.693 -36.993,-71.2 -0.86,-16.689 1.61,-33.484 -0.228,-50.167 -1.938,-16.672 -7.637,-32.582 -10.985,-48.965 -2.398,-10.529 -4.977,-22.31 -1.474,-32.84 -1.042,-8.544 1.657,-17.263 7.506,-23.598 7.638,-9.556 21.606,-11.318 32.621,-7.22 6.521,2.244 12.101,6.384 16.692,11.532"
                   style="fill:#4d4d4d;fill-opacity:1;fill-rule:nonzero;stroke:none"
                   id="path100" />
              </g>
              <g
                 transform="translate(-4.2576,241.5398)"
                 id="g106">
                <path
                   d="m 0,0 c -6.862,-10.403 -20.541,-18.003 -32.958,-13.379 -6.25,2.172 -10.152,8.162 -11.799,14.317 -1.752,6.191 -0.901,12.83 1.078,18.854 -1.141,7.994 1.868,17.932 4.2,26.188 3.905,17.299 8.39,34.761 7.372,52.646 -0.544,13.307 -1.696,26.847 0.75,40.065 4.204,21.423 17.46,43.719 39.306,50.476 10.733,3.176 22.866,1.795 32.437,-4.095 C 53.61,176.568 61.844,160.413 59.689,144.676 57.605,126.394 44.022,112.761 34.857,97.778 25.465,82.188 26.586,63.506 24.544,46.031 22.832,28.031 14.736,10.879 0,0 m -0.476,0.453 c 14.462,10.802 22.49,27.967 24.127,45.685 1.992,17.492 0.908,36.472 10.347,52.139 6.88,11.517 16.316,21.27 21.386,33.76 9.73,20.75 0.114,46.747 -21.239,55.482 -33.318,12.465 -59.641,-18.54 -64.944,-48.932 -3.311,-17.641 0.36,-35.556 -0.669,-53.334 -0.885,-13.398 -4.224,-26.436 -7.107,-39.502 -2.407,-8.547 -5.2,-17.312 -4.253,-26.239 -1.953,-5.899 -2.769,-12.334 -1.091,-18.345 1.596,-5.926 5.245,-11.659 11.263,-13.76 12.146,-4.467 25.365,2.877 32.18,13.046"
                   style="fill:#4d4d4d;fill-opacity:1;fill-rule:nonzero;stroke:none"
                   id="path104" />
              </g>
              <g
                 transform="translate(-2.6288,261.1967)"
                 id="g110">
                <path
                   d="m 0,0 c -3.798,-7.217 -10.381,-13.648 -18.643,-15.284 -9.224,-1.918 -17.209,4.114 -16.771,13.744 0.57,8.335 4.408,15.885 7.027,23.643 1.305,3.875 2.451,7.837 3.998,11.675 1.736,3.766 2.823,7.602 3.58,11.659 1.564,8.019 2.194,16.238 2.028,24.415 -0.3,12.261 -2.565,24.617 -0.962,36.918 2.015,15.332 10.738,33.562 25.382,40.276 7.61,3.379 16.748,2.872 23.999,-1.212 7.256,-4.167 11.624,-12.25 13.164,-20.285 C 46.045,108.41 35.201,93.711 26.014,80.411 6.751,53.323 24.461,27.053 0,0 m -0.538,0.377 c 12.077,13.251 14.356,28.274 15.066,45.503 0.454,7.176 1.251,14.462 3.639,21.298 2.812,8.952 8.935,16.317 13.98,23.943 9.387,13.468 14.945,30.596 5.618,45.613 -6.048,10.957 -20.742,14.825 -31.921,9.84 -11.335,-5.101 -18.347,-16.58 -22.332,-27.934 -5.699,-15.77 -2.195,-32.5 -1.565,-48.769 0.261,-10.298 -0.683,-20.654 -3.268,-30.653 -0.559,-2.015 -1.444,-3.903 -2.194,-5.792 -1.536,-3.779 -2.688,-7.713 -4.014,-11.615 -1.378,-3.903 -2.946,-7.674 -4.27,-11.555 -1.313,-3.859 -2.6,-7.796 -2.784,-11.824 -0.44,-6.072 3.65,-12.109 9.818,-13.034 10.4,-1.672 19.626,6.234 24.227,14.979"
                   style="fill:#4d4d4d;fill-opacity:1;fill-rule:nonzero;stroke:none"
                   id="path108" />
              </g>
              <g
                 transform="translate(-15.64,300.5195)"
                 id="g114">
                <path
                   d="m 0,0 c 3.37,4.101 7.391,8.276 9.682,12.786 2.662,8.166 0.541,16.83 -0.987,25.042 -2.139,10.406 -3.352,21.584 0.666,31.715 3.234,7.585 7.657,16.776 16.585,18.508 6.462,1.186 13.481,-2.461 16.005,-8.571 0.544,-1.778 0.933,-3.602 1.123,-5.453 C 44.274,56.743 29.792,44.211 23.438,29.385 21.989,26.051 20.786,22.596 20.297,18.978 19.192,11.77 19.846,4.401 19.058,-2.944 17.672,-13.452 14.329,-25.825 5.448,-32.451 -2.439,-38.634 -14.498,-37.306 -13.7,-25.176 -12.545,-15.415 -6.117,-7.296 0,0 m 0.502,-0.424 c -5.979,-7.229 -12.273,-15.223 -13.376,-24.813 -0.698,-11.312 10.456,-12.212 17.752,-6.446 8.575,6.528 11.919,18.563 13.348,28.832 0.831,7.23 0.226,14.625 1.394,21.935 0.518,3.664 1.76,7.177 3.251,10.549 6.387,14.766 21.031,27.12 19.7,44.345 -0.178,1.778 -0.627,3.678 -1.118,5.289 -2.457,5.836 -9.21,9.307 -15.388,8.123 C 17.466,85.646 13.27,76.613 10.177,69.236 6.345,59.207 7.453,48.291 9.532,37.987 11.051,29.677 13.141,20.866 10.38,12.552 7.876,7.657 3.949,3.769 0.502,-0.424"
                   style="fill:#4d4d4d;fill-opacity:1;fill-rule:nonzero;stroke:none"
                   id="path112" />
              </g>
            </g>
          </g>
        </g>
        <g
           id="g120">
          <g
             id="g122" />
          <g
             id="g166">
            <g
               clip-path="url(#clipPath126)"
               id="g164">
              <g
                 transform="translate(364.3143,-116.8751)"
                 id="g130">
                <path
                   d="m 0,0 c -15.937,3.014 -32.254,3.345 -48.431,3.964 -16.222,0.505 -32.456,0.837 -48.678,1.596 -52.981,3.046 -121.532,8.046 -157.655,51.867 -1.319,1.468 -2.404,3.33 -3.669,4.811 -1.329,1.341 -3.196,2.25 -4.991,3.1 -11.15,4.791 -23.085,7.564 -34.796,10.691 -23.593,6.036 -47.369,11.316 -70.817,17.946 -7.805,2.244 -15.594,4.598 -23.163,7.617 -3.778,1.561 -7.565,3.182 -10.868,5.658 -7.958,6.214 1.07,10.075 7.046,12.126 43.631,16.567 85.42,37.593 126.338,59.956 85.694,46.393 166.037,101.851 250.447,150.417 7.116,3.905 14.313,7.689 21.762,10.947 3.73,1.61 7.521,3.114 11.487,4.113 3.898,0.858 8.085,1.416 12.05,1.879 40.657,4.747 82.262,-10.663 111.434,-39.082 19.853,-19.679 31.023,-34.753 30.443,-63.905 -0.306,-16.327 -3.937,-32.274 -6.202,-48.307 -5.504,-34.646 1.57,-62.796 14.075,-94.853 8.531,-22.705 17.92,-45.694 20.079,-70.107 1.158,-8.158 -1.212,-16.849 -6.914,-22.905 -2.759,-3.08 -6.368,-5.222 -9.986,-7.102 -3.592,-1.919 -7.276,-3.664 -11.035,-5.23 C 113.909,-26.934 54.814,-10.494 0,0 m 0.128,0.645 c 54.679,-10.386 113.643,-26.74 167.489,-4.637 3.732,1.559 7.389,3.296 10.953,5.206 3.57,1.869 7.041,3.906 9.741,6.927 5.508,5.906 7.802,14.255 6.653,22.204 -2.177,24.353 -11.572,47.132 -20.077,69.849 -12.513,32.196 -19.552,60.57 -13.975,95.318 2.298,16.072 5.943,31.985 6.269,48.203 0.612,28.916 -10.399,43.802 -30.133,63.424 -29.02,28.341 -70.429,43.752 -110.935,39.073 -3.935,-0.44 -8.125,-1.006 -11.996,-1.853 -3.911,-0.981 -7.696,-2.475 -11.412,-4.077 -7.428,-3.242 -14.622,-7.015 -21.735,-10.911 -84.428,-48.54 -164.655,-104.153 -250.342,-150.606 -40.913,-22.419 -82.723,-43.512 -126.367,-60.138 -2.817,-1.103 -5.709,-1.994 -8.051,-3.907 -0.736,-0.617 -1.362,-1.38 -1.544,-2.244 -0.308,-1.897 1.337,-3.477 2.768,-4.577 3.213,-2.398 6.972,-4.013 10.677,-5.534 7.518,-2.989 15.295,-5.332 23.087,-7.563 23.427,-6.597 47.224,-11.855 70.814,-17.864 11.771,-3.13 23.717,-5.927 34.952,-10.758 1.89,-0.902 3.765,-1.787 5.279,-3.312 1.302,-1.586 2.394,-3.314 3.711,-4.867 C -218.188,14.416 -149.752,9.412 -97.073,6.318 -80.864,5.543 -64.636,5.194 -48.409,4.673 -32.191,4.035 -15.868,3.687 0.128,0.645"
                   style="fill:#4d4d4d;fill-opacity:1;fill-rule:nonzero;stroke:none"
                   id="path128" />
              </g>
              <g
                 transform="translate(560.8378,-119.0571)"
                 id="g134">
                <path
                   d="m 0,0 c -44.24,-28.564 -99.758,-24.2 -149.397,-15.764 -25.109,4.219 -50.338,10.191 -75.823,11.627 -67.471,5.142 -138.529,3.211 -200.837,33.259 -15.863,7.672 -30.518,18.058 -42.693,30.817 -2.53,2.49 -6.133,4.347 -9.299,5.891 -19.464,8.708 -40.204,14.158 -60.496,20.585 -24.338,7.734 -49.157,15.214 -71.424,27.995 -7.41,4.545 -17.405,12.655 -3.793,18.124 15.451,7.337 31.884,12.238 48.127,17.452 24.376,7.664 48.873,15.511 71.89,26.717 7.35,3.618 15.394,7.982 22.439,12.264 29.415,17.35 57.143,37.34 86.392,54.963 14.692,8.734 30.105,16.128 45.257,23.956 6.58,3.387 16.332,8.218 22.695,11.821 22.431,12.354 43.685,26.642 64.717,41.226 21.153,14.224 42.23,29.695 66.527,38.139 8.291,2.428 16.874,3.023 25.408,3.498 3.058,0.25 6.578,0.035 9.624,0.086 3.386,0.082 6.504,-0.381 9.61,-0.525 2.567,-0.038 4.012,-0.44 6.378,-0.699 0,0 6.357,-0.887 6.357,-0.887 3.316,-0.764 9.233,-1.743 12.527,-2.794 11.848,-3.093 23.449,-7.808 34.184,-13.683 20.98,-11.81 39.044,-28.778 52.03,-49.074 19.004,-30.482 7.512,-67.251 5.455,-100.463 -0.796,-17.004 0.972,-34.123 5.144,-50.631 7.957,-33.237 25.177,-63.622 31.464,-97.34 1.33,-8.418 2.524,-17.084 1.412,-25.585 C 12.419,12.461 7.286,4.652 0,0 m -0.355,0.553 c 7.124,4.559 12.14,12.209 13.555,20.538 1.087,8.37 -0.12,17.033 -1.438,25.345 -6.317,33.643 -23.567,64.026 -31.559,97.266 -4.209,16.578 -6.005,33.776 -5.216,50.872 1.997,33.164 13.488,69.581 -5.398,99.914 -12.907,20.139 -30.884,36.968 -51.694,48.729 -10.66,5.842 -22.165,10.565 -33.946,13.636 -3.312,1.063 -8.972,2.008 -12.446,2.793 0,-0.001 -6.318,0.889 -6.318,0.889 -1.996,0.256 -4.374,0.642 -6.338,0.702 -2.508,0.083 -7.172,0.657 -9.553,0.533 -3.017,-0.058 -6.59,0.167 -9.569,-0.072 -8.469,-0.458 -17.066,-1.055 -25.197,-3.431 -24.218,-8.395 -45.218,-23.781 -66.35,-37.949 -21.051,-14.558 -42.364,-28.847 -64.822,-41.184 -6.34,-3.583 -16.165,-8.437 -22.724,-11.804 -15.174,-7.818 -30.582,-15.189 -45.256,-23.892 -29.249,-17.578 -57.02,-37.55 -86.448,-54.864 -7.031,-4.246 -15.106,-8.666 -22.486,-12.257 -23.048,-11.171 -47.559,-19.095 -71.934,-26.783 -16.215,-5.225 -32.633,-10.143 -48.039,-17.481 -12.635,-5.033 -3.957,-12.389 3.859,-17.162 22.214,-12.715 47.021,-20.16 71.319,-27.849 20.336,-6.409 41.102,-11.834 60.625,-20.538 3.278,-1.577 6.932,-3.492 9.534,-6.042 12.136,-12.671 26.71,-22.978 42.507,-30.588 62.252,-29.84 133.159,-27.963 200.531,-33.163 25.498,-1.456 50.772,-7.449 75.889,-11.696 49.48,-8.448 104.804,-12.888 148.912,15.538"
                   style="fill:#4d4d4d;fill-opacity:1;fill-rule:nonzero;stroke:none"
                   id="path132" />
              </g>
              <g
                 transform="translate(574.9086,-123.715)"
                 id="g138">
                <path
                   d="m 0,0 c -59.396,-41.409 -135.963,-24.259 -202.32,-13.391 -90.902,13.694 -190.134,5.653 -271.188,56.107 -1.965,1.365 -6.01,3.987 -7.977,5.351 -1.962,1.498 -5.717,4.288 -7.675,5.778 -3.242,2.716 -7.181,6.173 -10.512,8.745 -4.387,3.154 -9.403,5.653 -14.262,7.976 -36.324,16.544 -76.12,26.928 -111.12,46.421 -6.381,3.56 -12.674,7.356 -18.35,12.014 -5.188,4.184 -12.941,12.154 -6.843,18.562 9.884,4.053 20.319,6.45 30.719,8.712 18.155,3.857 36.56,7.355 54.504,12.179 17.88,4.853 35.648,11.16 52.094,19.741 23.225,12.948 44.965,28.448 66.417,44.098 12.91,9.371 25.723,19.01 39.673,26.824 23.263,13.058 49.184,20.309 72.898,32.397 19.055,9.482 36.844,21.27 53.821,34.068 17.025,12.761 33.529,26.327 51.768,37.384 11.42,6.763 23.485,13.228 36.737,15.358 23.693,3.752 48.287,1.892 71.273,-4.888 3.689,-1.089 7.731,-2.601 11.364,-3.866 2.526,-1.096 6.671,-2.78 9.225,-3.879 0,0 1.789,-0.896 1.789,-0.896 l 7.156,-3.592 c 2.914,-1.598 5.751,-3.402 8.635,-5.057 17.46,-11.03 32.738,-25.682 44.266,-42.839 25.541,-35.999 10.01,-76.97 10.93,-116.837 0.997,-26.646 8.472,-52.49 18.053,-77.222 C -0.28,95.989 12.624,68.152 14.853,43.231 16.511,26.157 15.025,10.857 0,0 m -0.38,0.536 c 14.767,10.745 16.188,25.669 14.53,42.627 -2.273,24.778 -15.102,52.563 -23.811,75.806 -9.635,24.79 -17.158,50.74 -18.18,77.468 -0.987,39.549 14.503,80.781 -10.862,116.332 -11.472,17.039 -26.662,31.561 -43.996,42.542 -2.888,1.63 -5.678,3.446 -8.575,5.036 -1.112,0.582 -7.816,3.92 -8.883,4.47 -2.621,1.064 -6.531,2.785 -9.164,3.866 -3.595,1.276 -7.642,2.754 -11.292,3.856 -22.85,6.763 -47.297,8.648 -70.861,4.945 -13.149,-2.097 -25.113,-8.51 -36.462,-15.206 -18.219,-11.017 -34.72,-24.548 -51.748,-37.281 -17.016,-12.796 -34.866,-24.592 -53.963,-34.07 -23.734,-12.07 -49.648,-19.287 -72.914,-32.312 -13.936,-7.788 -26.73,-17.393 -39.643,-26.745 -17.17,-12.577 -34.599,-24.837 -52.716,-36.025 -4.139,-2.634 -9.577,-5.64 -13.805,-8.039 0,0 -7.173,-3.52 -7.173,-3.52 -21.638,-10.354 -44.948,-16.732 -68.29,-21.893 -18.137,-4.152 -36.618,-6.966 -54.386,-12.559 -1.28,-0.361 -2.513,-0.849 -3.748,-1.331 l -3.712,-1.428 c -5.359,-5.995 1.902,-13.557 6.985,-17.644 5.632,-4.613 11.91,-8.393 18.276,-11.935 34.994,-19.441 74.819,-29.779 111.15,-46.269 4.897,-2.332 9.95,-4.865 14.392,-8.027 3.341,-2.634 7.283,-6.013 10.551,-8.751 1.971,-1.443 5.665,-4.28 7.649,-5.743 1.924,-1.331 5.95,-3.954 7.951,-5.318 81.038,-50.183 180.09,-42.177 270.901,-55.963 66.156,-10.878 142.551,-28.121 201.799,13.111"
                   style="fill:#4d4d4d;fill-opacity:1;fill-rule:nonzero;stroke:none"
                   id="path136" />
              </g>
              <g
                 transform="translate(588.978,-128.3729)"
                 id="g142">
                <path
                   d="m 0,0 c -64.229,-48.619 -151.237,-27.421 -224.514,-16.895 -76.246,10.214 -154.899,11.627 -227.88,38.313 -25.346,9.317 -49.832,21.679 -71.18,38.329 -9.026,7.181 -19.482,12.495 -29.814,17.525 -34.509,16.496 -71.827,29.809 -103.479,51.681 -9.166,6.454 -32.146,22.25 -28.218,34.402 10.343,4.558 21.776,5.256 32.837,6.661 38.555,3.883 78.427,7.823 113.198,26.272 24.264,13.682 46.602,30.591 68.326,47.964 17.231,14.073 34.795,28.455 55.914,36.286 15.552,6.246 31.858,10.187 47.578,15.919 15.697,5.698 30.697,13.294 44.675,22.422 32.872,21.032 58.77,52.011 94.131,69.292 10.026,5.032 21.037,7.937 32.202,8.824 38.93,3.701 79.243,-5.804 111.656,-27.905 27.102,-18.899 51.432,-46.566 55.951,-80.337 3.267,-22.239 -0.585,-44.599 -1.435,-66.833 -1.176,-22.291 3.48,-44.44 10.066,-65.629 C -10.105,124.331 6.4,94.634 14.068,61.96 16.504,51.047 17.35,39.739 16.068,28.614 14.956,17.391 8.883,6.874 0,0 m -0.403,0.52 c 8.738,6.774 14.706,17.136 15.785,28.167 1.262,11.063 0.413,22.27 -2.02,33.119 -7.695,32.62 -24.224,62.301 -34.127,94.237 -6.635,21.269 -11.328,43.529 -10.162,65.91 0.832,22.21 4.66,44.519 1.393,66.665 -4.517,33.526 -28.692,60.865 -55.594,79.65 -32.194,22.006 -72.299,31.507 -111.013,27.868 -11.12,-0.883 -21.942,-3.713 -31.927,-8.71 -35.328,-17.232 -61.229,-48.155 -94.11,-69.129 -14.031,-9.14 -29.084,-16.746 -44.835,-22.445 -15.718,-5.714 -32.057,-9.649 -47.577,-15.865 -21.091,-7.805 -38.572,-22.103 -55.804,-36.146 -21.762,-17.366 -44.145,-34.275 -68.449,-47.945 -34.851,-18.416 -74.752,-22.449 -113.351,-26.37 -10.791,-1.219 -23.036,-2.522 -32.431,-6.454 -3.665,-11.793 19.613,-27.681 28.083,-33.641 31.634,-21.813 68.959,-35.083 103.463,-51.517 10.361,-5.023 20.888,-10.378 29.97,-17.571 21.309,-16.572 45.722,-28.857 71.011,-38.117 72.947,-26.511 151.505,-28.047 227.701,-38.293 73.068,-10.514 159.9,-31.848 223.994,16.587"
                   style="fill:#4d4d4d;fill-opacity:1;fill-rule:nonzero;stroke:none"
                   id="path140" />
              </g>
              <g
                 transform="translate(603.0463,-133.0308)"
                 id="g146">
                <path
                   d="m 0,0 c -59.233,-48.679 -141.875,-35.491 -212.156,-25.733 -88.279,14.397 -179.523,16.948 -264.364,47.611 -24.887,9.108 -49.059,20.584 -70.984,35.548 -2.456,1.723 -7.597,5.217 -10.062,6.948 -29.097,18.843 -61.257,32.262 -91.288,49.602 -20.922,12.619 -41.258,26.724 -58.333,44.316 -5.358,5.965 -11.411,12.472 -12.68,20.689 0,0 -0.019,0.167 -0.019,0.167 l 0.149,0.083 c 5.307,2.717 11.385,2.859 17.185,3.338 5.838,0.324 11.679,0.396 17.516,0.471 46.032,0.129 95.482,2.7 134.334,30.19 19.492,12.844 38.029,27.104 55.558,42.517 18.38,16.321 33.55,31.136 57.718,38.782 16.599,5.751 34.021,8.327 50.799,13.37 16.748,5.003 32.706,12.606 47.273,22.253 29.431,19.203 51.753,47.289 81.094,66.633 9.789,6.405 20.357,11.81 31.694,14.876 45.068,9.91 96.135,-0.524 134.336,-26.192 28.623,-19.607 53.52,-48.796 58.923,-83.968 5.683,-34.749 -5.186,-70.177 2.722,-104.709 6.904,-34.495 22.969,-66.02 35.886,-98.484 C 17.727,67.713 29.111,24.663 0,0 M -0.423,0.503 C 13.843,12.321 18.293,29.554 17.473,47.485 16.763,65.024 10.985,81.821 4.6,98.032 c -12.962,32.478 -29.072,64.051 -36.016,98.587 -7.96,34.52 2.874,70.037 -2.805,104.733 -5.394,34.923 -30.138,63.807 -58.566,83.29 -37.933,25.564 -88.767,35.99 -133.562,26.201 -11.237,-3.026 -21.748,-8.389 -31.467,-14.735 -29.331,-19.303 -51.694,-47.37 -81.154,-66.538 -14.633,-9.667 -30.656,-17.285 -47.472,-22.29 -16.774,-5.025 -34.237,-7.597 -50.79,-13.314 -24.059,-7.581 -39.241,-22.374 -57.563,-38.619 -8.789,-7.69 -17.806,-15.127 -27.088,-22.219 -14.008,-10.474 -28.198,-20.934 -43.539,-29.386 -25.973,-13.667 -55.555,-18.567 -84.589,-20.241 -17.487,-1.109 -35.023,-0.597 -52.511,-1.437 -5.72,-0.472 -11.778,-0.64 -16.953,-3.287 0,-10e-4 0.13,0.248 0.13,0.248 1.271,-8.046 7.274,-14.482 12.557,-20.356 17.046,-17.526 37.369,-31.588 58.251,-44.156 29.985,-17.278 62.214,-30.675 91.386,-49.519 2.511,-1.774 7.559,-5.185 10.074,-6.939 21.889,-14.901 46.008,-26.313 70.851,-35.371 84.81,-30.478 175.975,-33.179 264.193,-47.605 70.078,-9.782 152.52,-23.054 211.61,25.424"
                   style="fill:#4d4d4d;fill-opacity:1;fill-rule:nonzero;stroke:none"
                   id="path144" />
              </g>
              <g
                 transform="translate(617.1136,-137.689)"
                 id="g150">
                <path
                   d="m 0,0 c -62.09,-55.754 -159.804,-39.353 -235.712,-29.02 -88.617,13.434 -180.787,21.241 -265.632,51.497 -20.225,7.311 -40.004,16.06 -58.819,26.504 -10.893,5.973 -22.397,13.808 -32.922,20.385 -29.134,18.289 -60.028,33.795 -88.398,53.305 -20.978,15.037 -40.739,31.93 -58.051,51.103 -5.695,6.419 -11.27,13.216 -15.041,20.967 0,0 -0.101,0.187 -0.101,0.187 l 0.182,0.126 c 2.696,1.733 5.951,1.7 9.011,1.867 3.066,0.084 6.125,-0.041 9.178,-0.19 53.581,-4.127 113.346,-8.655 159.253,24.603 20.252,13.638 39.517,28.763 57.329,45.471 8.997,8.275 17.339,17.232 26.706,25.112 9.473,7.805 20.894,12.984 32.589,16.474 23.461,6.933 48.452,7.17 71.361,16.126 23.014,8.388 43.26,22.785 60.846,39.657 17.758,16.731 34.121,35.208 54.361,49.11 10.09,6.92 21.183,12.554 33.061,15.727 46.415,10.436 101.249,-0.695 140.692,-27.012 30.214,-20.293 55.754,-51.02 62.076,-87.627 6.56,-36.256 -4.348,-73.511 4.486,-109.498 C -25.278,169.008 -7.234,136.624 6.603,102.78 12.305,88.639 17.502,74.054 19.339,58.82 22.051,37.553 16.624,14.488 0,0 M -0.442,0.487 C 16.016,14.921 21.341,37.617 18.63,58.736 16.786,73.9 11.607,88.384 5.905,102.497 c -13.881,33.853 -31.97,66.281 -40.277,102.185 -8.889,35.976 1.985,73.323 -4.57,109.527 -6.309,36.355 -31.696,66.798 -61.717,86.959 -39.196,26.219 -93.759,37.338 -139.923,27.023 -11.762,-3.129 -22.784,-8.708 -32.82,-15.576 -20.201,-13.849 -36.552,-32.279 -54.314,-48.979 -17.649,-16.902 -38.021,-31.347 -61.119,-39.742 -28.549,-11.111 -60.794,-8.873 -88.452,-22.644 -11.189,-5.133 -20.15,-13.628 -28.836,-22.156 -21.672,-21.543 -45.232,-41.188 -70.668,-58.147 -46.007,-33.236 -105.857,-28.798 -159.54,-24.718 -3.046,0.146 -6.097,0.267 -9.137,0.18 -2.969,-0.15 -6.171,-0.157 -8.713,-1.771 0.001,0 0.082,0.313 0.082,0.313 3.757,-7.69 9.313,-14.443 14.973,-20.814 17.293,-19.118 37.054,-35.974 58.001,-50.959 28.38,-19.476 59.269,-34.929 88.427,-53.188 10.507,-6.567 22.039,-14.364 32.914,-20.328 18.793,-10.399 38.531,-19.107 58.731,-26.381 84.785,-30.068 176.945,-38.039 265.465,-51.481 75.715,-10.345 173.198,-26.835 235.146,28.687"
                   style="fill:#4d4d4d;fill-opacity:1;fill-rule:nonzero;stroke:none"
                   id="path148" />
              </g>
              <g
                 transform="translate(631.1801,-142.3475)"
                 id="g154">
                <path
                   d="m 0,0 c -39.959,-39.155 -99.265,-45.887 -152.709,-43.618 -44.978,1.694 -90.518,8.77 -135.037,15.428 -98.007,15.564 -198.886,28.636 -289.066,72.497 -12.12,6.045 -24.148,12.709 -35.64,19.87 -19.115,11.882 -38.725,23.888 -57.524,36.223 -11.333,7.436 -22.749,14.997 -33.667,23.049 -17.947,13.837 -34.412,29.596 -50.067,45.947 -12.536,13.197 -24.753,26.739 -35.692,41.309 0.672,0.792 1.589,1.02 2.461,1.141 2.406,0.282 4.837,0.035 7.228,-0.198 9.522,-1.097 18.949,-2.853 28.433,-4.196 49.438,-7.308 105.311,-9.124 147.554,21.744 l 7.863,5.461 c 18.103,13.007 35.636,27.093 51.455,42.804 9.188,8.889 17.442,18.652 26.687,27.491 9.334,8.86 21.638,13.949 33.921,17.24 24.778,6.412 51.04,4.468 75.347,12.966 38.823,12.252 63.04,40.413 89.984,68.903 17.671,18.245 37.944,35.621 63.049,42.196 24.923,6.11 51.173,4.815 76.265,0.456 62.012,-11.018 123.528,-54.98 136.354,-119.361 7.466,-37.796 -3.499,-76.896 6.099,-114.403 C -27.336,175.615 -6.965,142.502 7.849,107.27 23.754,70.519 31.533,31.215 0,0 m -0.458,0.471 c 31.219,30.946 23.481,69.953 7.613,106.508 -14.857,35.238 -35.276,68.396 -44.681,105.766 -9.654,37.499 1.278,76.683 -6.183,114.432 -18.726,90.103 -127.097,137.018 -211.49,118.259 -24.96,-6.521 -45.101,-23.773 -62.714,-41.919 -27.091,-28.592 -51.319,-56.693 -90.331,-68.992 -24.305,-8.488 -50.671,-6.544 -75.404,-12.915 -12.212,-3.262 -24.399,-8.281 -33.687,-17.075 -9.222,-8.804 -17.515,-18.587 -26.697,-27.455 -15.85,-15.717 -33.426,-29.804 -51.554,-42.812 0,0 -7.874,-5.458 -7.874,-5.458 -42.357,-30.871 -98.333,-29.097 -147.89,-21.835 -9.481,1.334 -18.906,3.081 -28.416,4.168 -2.368,0.228 -4.743,0.468 -7.102,0.194 -0.753,-0.109 -1.556,-0.313 -1.995,-0.807 10.443,-13.012 23.17,-28.044 35.563,-40.742 15.649,-16.313 32.101,-32.039 50.037,-45.837 10.935,-8.03 22.317,-15.573 33.653,-22.989 18.799,-12.301 38.412,-24.31 57.551,-36.15 11.482,-7.141 23.489,-13.773 35.596,-19.795 90.152,-43.665 190.934,-56.719 288.845,-72.365 44.485,-6.654 89.988,-13.78 134.939,-15.503 53.265,-2.297 112.391,4.333 152.221,43.322"
                   style="fill:#4d4d4d;fill-opacity:1;fill-rule:nonzero;stroke:none"
                   id="path152" />
              </g>
              <g
                 transform="translate(645.2457,-147.0062)"
                 id="g158">
                <path
                   d="m 0,0 c -55.931,-57.033 -143.305,-51.139 -216.659,-44.478 -113.141,14.909 -227.328,31.884 -335.779,68.425 -35.966,12.748 -70.634,29.204 -102.922,49.561 -32.072,20.494 -64.088,41.823 -91.604,68.291 -26.81,26.305 -51.125,57.364 -77.016,84.553 0,0 -0.069,0.07 -0.069,0.07 l -0.005,0.109 c -0.016,0.353 0.311,0.622 0.537,0.688 0.641,0.22 1.33,0.141 1.976,0.097 4.218,-0.448 12.8,-2.734 17.134,-3.718 19.422,-4.726 39.067,-8.729 58.975,-10.691 39.257,-3.945 82.072,-0.246 114.706,23.908 l 8.162,5.776 c 21.583,15.62 42.142,32.8 60.198,52.437 6.797,7.354 13.031,15.155 19.772,22.575 1.634,1.691 3.62,3.717 5.428,5.225 19.732,14.958 45.627,16.223 69.41,17.288 27.732,0.851 52.167,6.818 75.574,22.2 33.792,22.118 54.087,58.932 86.11,83.151 15.902,12.342 35.364,19.787 55.401,21.515 65.984,5.85 137.629,-17.947 178.115,-72.258 33.276,-44.622 28.248,-82.357 27.893,-134.168 0.168,-13.303 1.252,-26.659 4.655,-39.535 6.777,-25.828 19.32,-49.647 31.515,-73.265 C 16.175,99.053 44.938,47.017 0,0 m -0.473,0.456 c 19.282,19.72 27.592,46.15 21.534,73.238 -8.612,39.341 -31.757,73.213 -48.083,109.538 -11.451,24.367 -18.907,50.213 -18.513,77.312 0.289,51.545 5.391,89.196 -27.793,133.605 -36.176,48.538 -97.891,72.716 -157.322,72.804 -13.271,0.007 -26.693,-0.807 -39.526,-4.374 -39.916,-10.6 -64.223,-46.381 -91.257,-74.805 -22.543,-24.603 -52.785,-42.895 -86.329,-46.692 -19.82,-2.528 -40.118,-1.176 -59.646,-5.725 -10.447,-2.471 -20.83,-6.386 -29.39,-12.974 -6.919,-6.005 -12.406,-13.444 -18.504,-20.254 -21.797,-25.285 -47.803,-46.688 -75.154,-65.701 -32.733,-24.189 -75.663,-27.858 -115.019,-23.961 -19.935,1.947 -39.602,5.936 -59.047,10.648 l -9.73,2.31 c -2.828,0.578 -5.649,1.408 -8.542,1.416 -0.385,-0.015 -0.792,-0.154 -0.746,-0.308 l -0.074,0.178 c 25.923,-27.167 50.272,-58.195 77.081,-84.473 27.471,-26.389 59.521,-47.686 91.556,-68.112 32.279,-20.301 66.886,-36.683 102.824,-49.377 108.404,-36.346 222.544,-53.488 335.575,-68.427 73.14,-6.696 160.314,-12.68 216.105,44.134"
                   style="fill:#4d4d4d;fill-opacity:1;fill-rule:nonzero;stroke:none"
                   id="path156" />
              </g>
              <g
                 transform="translate(-199.4267,90.4578)"
                 id="g162">
                <path
                   d="M 0,0 C -0.376,-0.313 -0.229,1.119 0.245,0.881 1.249,0.754 3.082,0.048 4.082,-0.251 36.46,-11.59 70.11,-20.285 104.495,-21.967 c 29.624,-1.433 60.521,2.639 86.459,17.808 34.902,22.766 67.796,49.803 93.346,82.938 4.671,5.8 8.779,12.28 14.564,17.133 3.606,2.689 7.709,4.802 11.818,6.609 33.696,14.66 71.769,2.096 106.189,13.583 36.617,10.695 59.701,36.852 82.934,65.366 36.3,44.339 62.921,63.946 122.462,61.586 71.04,-1.837 145.847,-38.113 175.262,-105.619 15.427,-33.202 12.448,-70.484 12.455,-106.083 -0.521,-39.295 11.238,-68.116 29.718,-101.973 19.884,-37.887 55.073,-89.832 41.482,-133.756 -7.278,-22.995 -23.925,-42.034 -43.012,-56.262 -39.225,-28.703 -89.651,-34.857 -137.01,-34.733 -95.935,0.974 -190.365,20.679 -283.834,40.573 -81.582,17.883 -163.69,40.212 -236.236,82.767 -30.907,18.31 -59.596,40.312 -85.804,64.853 C 61.314,-73.473 35.809,-31.911 0,0 M 0.422,0.503 C 36.28,-31.4 61.815,-72.95 95.807,-106.643 c 26.178,-24.477 54.843,-46.423 85.705,-64.675 72.501,-42.452 154.514,-64.701 236.027,-82.516 93.419,-19.881 187.757,-39.738 283.627,-40.774 47.242,-0.165 97.496,5.901 136.627,34.486 19.004,14.131 35.574,33.063 42.835,55.918 16.343,52.772 -37.958,117.591 -57.104,165.616 -9.817,21.967 -14.126,45.944 -13.973,69.937 -0.047,35.548 2.931,72.751 -12.504,105.875 C 767.648,204.484 693.07,240.575 622.244,242.333 562.983,244.611 536.632,225.164 500.474,180.91 477.098,152.171 454.041,125.992 417.14,115.22 382.754,103.713 344.643,116.285 311.028,101.725 306.982,99.953 302.949,97.877 299.4,95.238 293.692,90.446 289.646,84.052 284.97,78.259 259.331,45.046 226.352,17.967 191.345,-4.829 186.159,-7.853 180.736,-10.463 175.157,-12.67 120.285,-33.538 57.491,-19.432 3.871,-0.877 3.871,-0.876 1.747,-0.18 1.747,-0.18 1.229,-0.028 0.706,0.154 0.189,0.226 0.067,0.135 0.445,0.975 0.422,0.503"
                   style="fill:#4d4d4d;fill-opacity:1;fill-rule:nonzero;stroke:none"
                   id="path160" />
              </g>
            </g>
          </g>
        </g>
        <g
           id="g168">
          <g
             id="g170" />
          <g
             id="g218">
            <g
               clip-path="url(#clipPath174)"
               id="g216">
              <g
                 transform="translate(239.1276,-80.0908)"
                 id="g178">
                <path
                   d="m 0,0 c -4.296,3.142 -9.462,4.809 -14.441,6.577 -15.212,4.991 -30.854,8.548 -46.442,12.166 -41.646,9.513 -83.645,17.564 -124.9,28.748 -12.4,3.719 -52.707,13.823 -54.716,26.548 -0.078,0.736 -0.021,1.497 0.17,2.208 4.109,7.971 11.762,13.142 18.973,18.021 37.414,22.825 79.188,37.156 119.08,54.916 23.98,10.509 48.136,21.043 70.239,35.171 21.848,14.521 42.392,30.875 63.381,46.603 47.523,35.074 104.027,77.028 166.466,62.543 12.72,-3.287 25.047,-8.079 36.684,-14.169 66.422,-35.224 38.493,-93.874 37.472,-152.943 -0.057,-8.723 0.58,-17.473 2.391,-26.003 1.863,-8.513 4.888,-16.749 8.16,-24.836 9.802,-24.165 23.403,-47.772 24.85,-74.372 0,0 -0.061,0.204 -0.061,0.204 0.941,-1.541 1.216,-3.557 0.537,-5.282 -0.632,-1.699 -2.019,-2.862 -3.228,-4.133 -2.429,-2.416 -5.069,-4.615 -7.864,-6.589 C 282.652,-24.505 265.483,-28.38 248.766,-31.129 166.273,-42.789 74.396,-41.613 0,0 m 0.369,0.544 c 74.604,-42.198 175.513,-43.205 258.249,-28.882 13.209,2.672 26.476,6.667 37.601,14.471 2.758,1.942 5.362,4.103 7.756,6.476 1.118,1.165 2.446,2.275 3.028,3.809 0.576,1.462 0.358,3.151 -0.462,4.511 l -0.056,0.093 -0.005,0.112 c -1.408,26.481 -14.942,50.023 -24.662,74.132 -3.268,8.118 -6.29,16.379 -8.155,24.973 -1.809,8.597 -2.434,17.397 -2.364,26.155 1.042,58.784 29.151,117.438 -36.998,152.577 -11.597,6.062 -23.927,10.819 -36.601,14.073 C 135.391,307.361 79.184,265.375 31.84,230.299 10.877,214.528 -9.63,198.078 -31.535,183.584 c -37.191,-23.208 -78.669,-38.271 -118.721,-55.661 -18.65,-8.273 -86.937,-35.274 -89.438,-53.791 2.098,-12.211 42.663,-22.446 54.116,-25.896 41.225,-11.202 83.218,-19.279 124.85,-28.815 15.604,-3.631 31.262,-7.202 46.5,-12.212 C -9.205,5.42 -3.979,3.729 0.369,0.544"
                   style="fill:#4d4d4d;fill-opacity:1;fill-rule:nonzero;stroke:none"
                   id="path176" />
              </g>
              <g
                 transform="translate(255.0009,-72.3245)"
                 id="g182">
                <path
                   d="m 0,0 c -4.333,2.693 -9.393,4.166 -14.237,5.738 -4.927,1.514 -9.91,2.857 -14.907,4.142 -50.048,12.642 -101.152,21.175 -150.56,36.323 -8.841,3.028 -36.205,11.063 -35.678,21.036 4.377,18.192 49.55,37.088 66.261,44.932 37.571,17.026 76.609,31.23 112.242,52.203 17.535,10.904 33.381,24.269 49.719,36.847 48.544,37.217 108.364,87.54 173.498,65.17 6.98,-2.642 14.789,-5.703 21.323,-9.271 14.804,-7.679 28.74,-18.75 36.207,-33.986 1.065,-1.863 2.259,-5.129 3.097,-7.133 0.632,-2.177 1.734,-5.278 2.136,-7.476 2.114,-8.753 2.486,-18.044 2.247,-27.018 -2.616,-47.751 -14.19,-74.758 8.285,-121.322 8.268,-18.522 18.032,-38.645 18.366,-58.725 1.208,-3.24 -0.667,-6.64 -3.223,-8.572 0,-0.001 -1.733,-1.549 -1.733,-1.549 C 256.868,-22.266 235.328,-26.562 214.935,-29.193 143.104,-37.97 63.062,-41.073 0,0 m 0.368,0.545 c 62.961,-40.873 142.792,-37.624 214.445,-28.812 20.288,2.646 41.544,6.882 57.587,20.368 0.954,0.863 2.49,2.138 3.331,3.063 1.382,1.571 2.107,3.967 1.357,5.938 -0.546,20.876 -9.965,39.958 -18.262,58.728 -22.484,46.757 -10.865,73.973 -8.163,121.7 0.243,8.914 -0.1,18.149 -2.192,26.847 -0.393,2.214 -1.485,5.26 -2.106,7.412 -0.841,1.944 -1.986,5.228 -3.057,7.066 -7.406,15.139 -21.19,26.107 -35.906,33.774 -6.504,3.559 -14.281,6.631 -21.239,9.269 C 143.282,281.707 98.494,261.734 62.909,237.679 37.112,220.514 13.367,200.517 -11.23,181.707 -19.461,175.464 -27.675,169.15 -36.531,163.8 c -8.844,-5.364 -18.022,-10.142 -27.302,-14.682 -27.868,-13.556 -56.68,-25.057 -84.921,-37.764 -18.638,-8.626 -37.796,-16.997 -54.172,-29.537 -4.21,-3.416 -8.275,-7.221 -10.693,-12.069 l -0.367,-0.868 c -0.265,-0.588 -0.447,-1.137 -0.505,-1.721 -0.103,-1.166 0.31,-2.344 0.993,-3.359 1.383,-2.05 3.486,-3.604 5.612,-4.984 4.328,-2.725 9.076,-4.784 13.853,-6.684 4.794,-1.881 9.674,-3.549 14.587,-5.114 C -130.081,31.845 -78.991,23.24 -28.971,10.549 -23.97,9.257 -18.98,7.907 -14.038,6.382 -9.105,4.776 -4.087,3.313 0.368,0.545"
                   style="fill:#4d4d4d;fill-opacity:1;fill-rule:nonzero;stroke:none"
                   id="path180" />
              </g>
              <g
                 transform="translate(270.8745,-64.5584)"
                 id="g186">
                <path
                   d="m 0,0 c -5.071,3.033 -11.016,4.542 -16.657,6.266 -5.746,1.641 -11.546,3.103 -17.357,4.517 -40.699,9.865 -82.017,17.333 -122.155,29.442 -8.077,2.724 -34.969,10.392 -33.853,19.754 1.214,4.51 4.422,8.056 7.625,11.243 4.373,4.167 9.307,7.649 14.363,10.871 45.934,28.123 99.317,42.568 143.568,73.584 9.503,7.246 18.719,14.893 27.98,22.466 32.292,26.068 65.198,54.515 105.912,66.04 10.05,2.684 20.77,3.986 31.169,3.31 1.348,-0.006 3.151,-0.313 4.477,-0.439 5.219,-0.511 10.352,-1.811 15.387,-3.256 9.13,-3.086 18.238,-7.21 26.541,-12.112 18.565,-10.485 33.04,-27.401 36.002,-49.031 3.649,-23.876 -2.484,-47.756 -2.878,-71.631 -0.356,-11.923 0.779,-23.914 4.252,-35.36 7.339,-25.072 21.921,-48.093 24.293,-74.538 0.064,-3.174 -1.779,-6.208 -4.345,-7.957 L 242.54,-8.22 c -9.706,-7.185 -21.158,-11.635 -32.845,-14.359 -5.843,-1.392 -11.777,-2.336 -17.719,-3.111 -17.825,-2.233 -35.73,-3.866 -53.689,-4.474 C 90.917,-31.615 40.463,-26.774 0,0 m 0.366,0.546 c 40.389,-26.628 90.648,-31.337 137.891,-29.841 11.949,0.414 23.88,1.301 35.778,2.496 17.758,1.911 35.865,3.551 52.43,10.613 5.463,2.347 10.708,5.228 15.48,8.769 2.227,1.736 4.841,3.488 5.468,6.443 0.455,1.427 0.222,2.796 0.027,4.255 -0.206,1.473 -0.304,2.961 -0.607,4.421 -2.881,17.783 -10.852,34.065 -17.356,50.742 -4.366,11.151 -8.224,22.65 -9.475,34.623 -1.348,11.938 -0.607,23.994 0.524,35.91 2.108,23.426 6.831,48.408 -3.192,70.655 -8.147,17.917 -25.136,29.737 -42.49,37.851 -3.843,1.646 -8.449,3.791 -12.428,5.087 -5.617,1.952 -11.493,3.341 -17.402,4.002 -17.828,2.265 -35.983,-1.746 -52.42,-8.606 -44.27,-19.102 -78.877,-53.846 -116.668,-82.814 -29.345,-20.899 -63.314,-33.916 -95.679,-49.225 -18.941,-9.134 -56.91,-25.184 -67.645,-42.159 -0.736,-1.209 -1.438,-2.591 -1.743,-3.924 -0.225,-1.333 0.39,-2.686 1.282,-3.788 3.899,-4.399 9.739,-6.731 15.056,-9.061 11.069,-4.491 22.6,-7.782 34.119,-10.92 C -98.254,25.139 -56.89,17.918 -16.47,6.919 -10.726,5.154 -4.849,3.668 0.366,0.546"
                   style="fill:#4d4d4d;fill-opacity:1;fill-rule:nonzero;stroke:none"
                   id="path184" />
              </g>
              <g
                 transform="translate(286.7483,-56.7924)"
                 id="g190">
                <path
                   d="m 0,0 c -4.478,2.643 -9.716,3.972 -14.684,5.49 -5.066,1.439 -10.176,2.734 -15.298,3.981 -35.857,8.746 -72.294,15.317 -107.575,26.33 -7.133,2.503 -25.58,7.978 -27.151,15.39 0.936,11.951 25.011,25.519 34.834,31.07 27.755,15.22 57.136,27.299 84.664,42.898 9.137,5.222 18.124,10.812 26.163,17.602 8.011,6.854 15.899,13.858 23.869,20.769 21.893,18.88 44.457,37.824 70.861,50.119 20.792,9.524 43.438,13.492 65.428,5.526 0.452,-0.143 1.423,-0.48 1.859,-0.687 1.745,-0.767 3.767,-1.503 5.471,-2.34 3.304,-1.64 7.371,-3.591 10.539,-5.492 9.154,-5.178 17.791,-11.749 24.46,-19.943 25.058,-30.924 6.445,-72.141 11.551,-107.769 0.698,-5.205 1.757,-10.357 3.282,-15.386 6.381,-21.356 20.463,-40.713 20.94,-63.624 0,0 0.05,-1.994 0.05,-1.994 -0.013,-3.446 -2.485,-6.651 -5.278,-8.447 -8.781,-5.98 -18.733,-10.069 -28.998,-12.682 -10.256,-2.656 -20.826,-3.663 -31.333,-4.682 -10.506,-1.002 -21.041,-1.749 -31.593,-2.116 C 80.319,-27.31 35.789,-23.446 0,0 m 0.363,0.548 c 35.717,-23.301 80.05,-27.035 121.667,-25.666 10.53,0.381 21.046,1.141 31.537,2.156 10.47,1.031 20.984,2.044 31.183,4.7 10.159,2.601 19.996,6.655 28.672,12.582 2.593,1.633 4.798,4.502 4.861,7.628 0,0.001 -0.046,1.962 -0.046,1.962 -0.453,22.787 -14.464,42.067 -20.77,63.404 -1.527,5.073 -2.587,10.282 -3.28,15.529 -5.078,35.565 13.655,76.618 -11.213,107.495 -6.616,8.149 -15.179,14.686 -24.265,19.849 -3.184,1.858 -7.17,3.892 -10.49,5.49 -1.67,0.891 -3.709,1.529 -5.433,2.335 -0.458,0.196 -1.366,0.552 -1.846,0.686 -21.772,7.942 -44.483,4.07 -65.079,-5.439 -26.341,-12.33 -48.802,-31.267 -70.649,-50.177 -7.954,-6.925 -15.829,-13.942 -23.833,-20.82 -8.079,-6.854 -17.082,-12.48 -26.228,-17.736 -27.529,-15.679 -56.846,-27.816 -84.568,-43.089 -10.068,-5.685 -32.895,-18.536 -34.413,-30.118 1.917,-8.721 33.13,-16.641 41.68,-19.214 30.512,-8.353 61.592,-14.489 92.335,-21.952 5.125,-1.255 10.239,-2.56 15.318,-4.01 5.069,-1.557 10.24,-2.866 14.86,-5.595"
                   style="fill:#4d4d4d;fill-opacity:1;fill-rule:nonzero;stroke:none"
                   id="path188" />
              </g>
              <g
                 transform="translate(302.6224,-49.0267)"
                 id="g194">
                <path
                   d="m 0,0 c -6.239,3.396 -13.414,4.825 -20.221,6.731 -6.931,1.771 -13.903,3.391 -20.878,4.996 -20.928,4.82 -41.955,9.313 -62.665,15.047 -10.299,3.026 -20.849,5.822 -30.261,11.16 -2.591,1.596 -6.244,4.122 -5.169,7.655 1.592,3.8 4.108,7.111 6.959,10.005 7.72,7.572 17.003,13.276 26.26,18.723 18.617,10.725 38.051,19.969 56.705,30.597 9.308,5.316 18.476,10.929 26.914,17.552 13.625,11.583 25.754,24.835 39.409,36.422 27.207,23.595 63.382,49.904 101.12,37.174 11.753,-4.374 22.564,-11.305 31.868,-19.696 10.729,-9.66 17.701,-23.242 19.016,-37.647 2.249,-21.417 -3.012,-42.934 -0.072,-64.318 0.871,-7.07 2.601,-14.04 5.214,-20.671 6.52,-16.882 18.241,-33.208 15.679,-52.199 -0.448,-3.007 -3.534,-6.844 -5.71,-7.461 -5.979,-5.422 -13.641,-8.586 -21.415,-10.385 -7.788,-1.818 -15.746,-2.471 -23.636,-3.234 -15.811,-1.477 -31.682,-2.607 -47.582,-2.499 C 59.983,-21.925 27.012,-17.41 0,0 m 0.36,0.55 c 26.907,-17.267 59.772,-21.693 91.178,-21.751 15.859,-0.082 31.7,1.069 47.49,2.57 7.895,0.775 15.816,1.441 23.505,3.25 7.681,1.789 15.203,4.915 21.038,10.256 2.636,1.02 4.713,4.028 5.334,6.791 2.535,18.787 -9.079,34.951 -15.504,51.758 -2.621,6.696 -4.352,13.741 -5.215,20.876 -2.903,21.413 2.408,42.938 0.216,64.345 -1.287,14.288 -8.126,27.696 -18.752,37.304 -9.212,8.349 -19.973,15.275 -31.639,19.647 C 80.41,208.38 44.481,182.013 17.424,158.465 3.797,146.849 -8.319,133.556 -21.928,121.928 c -8.45,-6.67 -17.642,-12.331 -26.959,-17.684 -18.644,-10.688 -38.031,-19.971 -56.615,-30.742 -9.212,-5.41 -18.428,-11.048 -26.093,-18.542 -2.797,-2.843 -5.236,-6.028 -6.77,-9.682 -0.375,-1.161 -0.024,-2.346 0.778,-3.322 3.543,-3.925 8.852,-5.788 13.651,-7.811 13.37,-5.057 27.306,-8.519 41.168,-11.973 20.853,-5.129 41.898,-9.487 62.72,-14.771 C -13.154,5.457 -5.975,4.027 0.36,0.55"
                   style="fill:#4d4d4d;fill-opacity:1;fill-rule:nonzero;stroke:none"
                   id="path192" />
              </g>
              <g
                 transform="translate(318.4974,-41.2614)"
                 id="g198">
                <path
                   d="m 0,0 c -5.33,2.844 -11.436,4.057 -17.229,5.68 -5.902,1.509 -11.838,2.899 -17.776,4.28 -17.812,4.162 -35.717,8.045 -53.284,13.198 -5.844,1.762 -11.682,3.611 -17.274,6.158 -3.102,1.525 -9.219,4.276 -8.436,8.23 0.057,0.213 0.107,0.44 0.198,0.601 l 0.489,1.059 0.491,1.059 c 0.563,0.99 1.191,2.039 1.85,2.949 3.594,5.054 8.329,9.069 13.15,12.813 19.626,14.61 41.864,25.062 62.147,38.621 10.216,6.653 19.745,14.303 27.55,23.717 22.624,24.652 54.03,58.184 90.009,57.28 12.387,-0.326 23.863,-6.033 33.467,-13.532 15.485,-11.406 25.582,-26.51 26.762,-46.046 1.331,-18.224 -1.928,-36.643 1.537,-54.723 1.044,-5.985 2.739,-11.83 5.25,-17.368 4.487,-10.419 11.367,-20.333 12.38,-31.934 0.202,-3.004 0.071,-6.28 -0.577,-9.23 -0.28,-2.393 -1.708,-4.477 -3.299,-6.19 -1.105,-1.102 -2.317,-2.23 -4.055,-2.6 l 0.232,0.107 C 143.035,-14.579 128.768,-15.214 115.777,-16.193 76.967,-18.926 34.402,-21.322 0,0 m 0.356,0.553 c 34.308,-21.139 76.685,-18.61 115.352,-15.831 12.84,0.996 26.911,1.619 37.241,10.17 l 0.096,0.08 0.137,0.027 c 1.295,0.259 2.491,1.277 3.497,2.312 1.225,1.333 2.358,2.852 2.863,4.586 0.103,0.613 0.488,2.659 0.605,3.326 0.587,4.468 0.172,9.056 -1.005,13.397 -2.509,8.814 -7.413,16.608 -11.032,25.012 -2.516,5.585 -4.227,11.543 -5.26,17.57 -2.186,12.069 -1.687,24.387 -1.244,36.568 0.426,12.087 0.485,24.55 -3.98,35.967 -4.367,11.412 -12.94,20.683 -22.595,27.952 -9.539,7.476 -20.86,13.16 -33.164,13.513 -35.629,1.062 -67.181,-32.809 -89.503,-57.274 -7.79,-9.463 -17.393,-17.22 -27.612,-23.92 -20.241,-13.605 -42.403,-24.186 -62.017,-38.71 -6.203,-4.856 -12.529,-10.142 -15.721,-17.479 -1.055,-2.502 1.964,-4.385 3.79,-5.612 6.546,-3.837 13.916,-5.996 21.144,-8.254 17.54,-5.174 35.414,-9.091 53.212,-13.284 5.937,-1.393 11.874,-2.795 17.784,-4.318 C -11.177,4.689 -5.07,3.475 0.356,0.553"
                   style="fill:#4d4d4d;fill-opacity:1;fill-rule:nonzero;stroke:none"
                   id="path196" />
              </g>
              <g
                 transform="translate(334.3736,-33.4969)"
                 id="g202">
                <path
                   d="m 0,0 c -4.398,2.275 -9.506,3.311 -14.289,4.644 -4.89,1.254 -9.806,2.42 -14.722,3.586 -14.741,3.54 -29.588,6.805 -44.019,11.522 -4.062,1.533 -16.146,5.052 -15.714,9.991 0.1,0.533 0.53,1.361 0.756,1.862 0.189,0.458 0.625,1.292 0.886,1.708 3.834,6.649 9.738,11.81 15.625,16.57 15.883,12.539 33.735,22.339 49.226,35.354 4.796,4.052 9.375,8.45 13.116,13.5 15.791,21.772 38.095,49.389 66.28,53.368 16.291,2.166 29.376,-6.314 40.233,-17.586 7.106,-7.218 12.851,-15.987 15.485,-25.842 4.049,-14.764 1.924,-30.24 3.353,-45.302 0.877,-10.004 2.777,-20.043 7.49,-29.009 4.164,-8.399 9.991,-17.014 8.743,-26.822 -0.248,-1.973 -0.707,-3.74 -1.298,-5.633 -1.114,-3.237 -5.641,-7.764 -8.163,-7.725 -8.778,-6.448 -20.087,-6.739 -30.499,-7.137 C 81.995,-13.437 71.471,-13.971 60.94,-13.885 40.024,-13.647 18.158,-11.184 0,0 m 0.349,0.557 c 18.074,-11.056 39.811,-13.425 60.597,-13.604 10.504,-0.057 20.994,0.494 31.506,1.007 10.268,0.42 21.384,0.702 29.952,7.016 l 0.113,0.084 c 2.345,0.21 4.36,2.33 5.847,4.091 0.764,0.955 1.484,1.978 1.854,3.083 l 0.522,1.788 c 0.172,0.596 0.374,1.186 0.443,1.803 2.249,10.207 -3.93,19.388 -8.261,28.154 -4.72,9.04 -6.631,19.248 -7.477,29.332 -1.382,15.041 0.797,30.474 -3.189,45.199 -2.583,9.769 -8.239,18.453 -15.265,25.633 -10.694,11.172 -23.678,19.682 -39.797,17.556 -27.98,-4.031 -50.164,-31.675 -65.773,-53.371 -3.753,-5.113 -8.371,-9.58 -13.178,-13.673 -19.135,-16.551 -42.767,-27.334 -60.2,-45.716 -1.635,-1.891 -3.182,-3.875 -4.383,-6.056 l -0.469,-0.807 -0.392,-0.844 -0.392,-0.843 c -0.781,-1.297 0.092,-2.612 1.28,-3.576 3.927,-3.025 8.894,-4.615 13.547,-6.273 4.779,-1.603 9.634,-2.991 14.506,-4.309 C -43.63,12.282 -28.8,9.079 -14.116,5.315 -9.21,3.932 -4.229,2.937 0.349,0.557"
                   style="fill:#4d4d4d;fill-opacity:1;fill-rule:nonzero;stroke:none"
                   id="path200" />
              </g>
              <g
                 transform="translate(350.2527,-25.7341)"
                 id="g206">
                <path
                   d="m 0,0 c -7.333,3.17 -15.475,4.476 -23.184,6.576 -7.839,1.942 -15.688,3.878 -23.435,6.223 -4.809,1.536 -9.763,2.998 -14.132,5.646 -1.269,0.825 -3.052,2.145 -2.614,3.956 3.808,8.996 11.247,15.802 18.317,22.191 12.705,11.379 27.26,21.191 37.044,35.381 3.826,5.918 6.544,12.531 10.573,18.352 6.648,10.095 14.658,19.691 25.045,26.107 21.964,13.133 38.233,0.575 50.595,-18.147 2.085,-3.433 4.197,-7.021 5.593,-10.784 0,0 1.099,-2.839 1.099,-2.839 0.291,-1.037 1.021,-3.393 1.301,-4.378 2.349,-9.352 2.507,-19.082 3.328,-28.593 0.686,-8.019 1.868,-16.047 4.04,-23.756 1.225,-3.813 3.062,-7.393 5.008,-10.921 2.657,-4.784 5.689,-10.079 5.212,-15.825 -0.226,-2.552 -1.047,-5.1 -2.117,-7.418 -1.823,-3.155 -5.742,-7.503 -9.591,-7.599 0,0 0.298,0.072 0.298,0.072 C 85.483,-10.05 77.095,-10.076 69.274,-9.945 46.065,-9.66 20.931,-12.049 0,0 m 0.336,0.565 c 20.876,-11.897 45.827,-9.369 68.95,-9.611 7.733,-0.104 15.993,-0.075 22.71,4.19 1.88,-0.1 3.68,1.345 5.082,2.551 4.551,3.867 6.564,10.183 5.488,15.956 -1.903,7.798 -7.554,14.254 -9.799,22.026 -4.634,15.653 -3.713,32.104 -6.218,48.033 -1.456,7.908 -4.43,15.515 -8.805,22.275 -8.695,13.182 -21.463,26.907 -38.827,22.677 C 23.068,124.603 11.821,111.07 3.105,97.977 -1.499,91.307 -4.27,83.564 -9.141,77.07 -18.958,64.085 -32.378,54.586 -44.438,43.9 -51.472,37.584 -58.749,30.935 -62.546,22.17 c -0.25,-1.367 1.206,-2.279 2.252,-3.02 4.279,-2.6 9.147,-4.047 13.91,-5.585 7.708,-2.359 15.545,-4.317 23.376,-6.282 7.809,-2.155 15.891,-3.446 23.344,-6.718"
                   style="fill:#4d4d4d;fill-opacity:1;fill-rule:nonzero;stroke:none"
                   id="path204" />
              </g>
              <g
                 transform="translate(366.1402,-17.9756)"
                 id="g210">
                <path
                   d="m 0,0 c -2.403,1.027 -6.163,1.995 -8.736,2.707 -8.587,2.491 -18.373,4.492 -26.396,8.494 -1.324,0.766 -3.515,1.964 -2.849,3.82 0.717,1.374 1.359,2.791 2.138,4.129 4.62,8.046 10.867,14.995 16.761,22.076 5.385,6.474 10.766,13.043 14.426,20.66 1.75,3.421 2.835,7.05 3.834,10.776 1.635,5.964 4.032,11.715 7.16,17.047 11.211,19.299 29.197,27.287 42.787,4.938 4.703,-7.969 8.473,-16.523 10.668,-25.527 2.47,-10.499 3.208,-21.303 5.424,-31.837 0.925,-4.475 1.728,-9.062 3.731,-13.181 2.259,-5.171 7.139,-10.045 5.934,-16.157 -1.168,-5.064 -4.57,-9.289 -8.797,-12.18 -1.386,-0.864 -2.877,-1.753 -4.634,-1.495 0,0 0.293,0.037 0.293,0.037 C 54.374,-9.158 46.112,-7.216 38.369,-6.705 25.513,-5.876 11.728,-6.062 0,0 m 0.306,0.582 c 11.632,-5.938 25.361,-5.681 38.116,-6.441 7.666,-0.461 15.841,-2.4 23.059,1.079 1.406,-0.286 2.888,0.579 4.073,1.341 3.994,2.743 7.233,6.823 8.368,11.573 1.115,5.9 -3.615,10.458 -5.771,15.596 -2.028,4.234 -2.807,8.856 -3.72,13.398 C 62.272,47.684 61.598,58.481 59.185,68.974 57.052,77.926 53.34,86.457 48.711,94.393 35.518,116.484 17.78,108.462 6.875,89.396 3.803,84.1 1.468,78.379 -0.112,72.47 -1.074,68.772 -2.186,64.982 -3.926,61.535 -7.578,53.85 -12.935,47.091 -18.371,40.63 -25.251,32.416 -32.6,24.423 -37.234,14.68 c -0.361,-1.218 1.54,-2.194 2.491,-2.775 7.874,-3.964 17.707,-6.048 26.189,-8.529 2.702,-0.816 6.309,-1.619 8.86,-2.794"
                   style="fill:#4d4d4d;fill-opacity:1;fill-rule:nonzero;stroke:none"
                   id="path208" />
              </g>
              <g
                 transform="translate(369.4142,-2.8587)"
                 id="g214">
                <path
                   d="m 0,0 c 6.033,10.671 12.046,21.63 14.064,33.836 0.688,4.022 0.965,8.109 0.907,12.191 -0.188,4.07 -0.313,8.357 0.486,12.369 1.136,6.098 3.504,12.114 7.606,16.839 4.662,5.475 11.47,6.979 15.816,0.208 4.463,-6.982 4.891,-15.803 6.232,-23.758 1.212,-8.126 2.765,-16.183 4.801,-24.144 0.999,-3.987 2.037,-7.947 3.089,-11.939 0.472,-2.011 0.936,-3.962 1.831,-5.78 C 55.935,6.98 58.875,4.7 58.843,1.388 58.196,-3.983 51.388,-10.18 46.753,-12.534 45.78,-12.951 44.65,-13.326 43.441,-12.993 l 0.255,-0.004 c -5.82,-1.556 -11.768,0.274 -17.353,1.876 -2.791,0.777 -8.426,2.286 -11.22,3.052 C 12.604,-7.459 -1.521,-3.281 0,0 m 0.574,-0.321 c -0.155,-0.239 0.011,-0.606 0.307,-0.934 0.97,-1.004 2.288,-1.644 3.541,-2.273 4.979,-2.493 11.133,-3.899 16.514,-5.319 7.3,-1.642 15.109,-5.264 22.642,-3.225 0.863,-0.292 1.858,-0.019 2.79,0.398 2.714,1.304 4.972,3.44 7.078,5.581 1.921,2.103 4.122,4.625 4.473,7.527 -0.03,3.05 -2.798,5.202 -3.853,8.03 -0.914,1.891 -1.39,3.973 -1.836,5.959 -2.01,7.954 -4.085,15.939 -5.617,24.012 -1.106,5.856 -2.029,12.353 -2.864,18.279 C 42.928,63.727 41.816,70.02 38.454,75.155 32.33,84.234 23.783,76.992 20.161,69.766 17.311,64.377 15.837,58.272 15.737,52.185 17.127,30.635 11.1,17.821 0.574,-0.321"
                   style="fill:#4d4d4d;fill-opacity:1;fill-rule:nonzero;stroke:none"
                   id="path212" />
              </g>
            </g>
          </g>
        </g>
        <g
           id="g220">
          <g
             id="g222" />
          <g
             id="g290">
            <g
               clip-path="url(#clipPath226)"
               id="g288">
              <g
                 transform="translate(385.2491,497.3759)"
                 id="g230">
                <path
                   d="m 0,0 c 6.019,40.723 33.935,71.017 69.325,89.86 67.376,35.421 154.656,41.083 229.628,37.177 12.189,-0.962 24.55,-1.414 36.542,-3.919 -10e-4,0 7.201,-1.518 7.201,-1.518 57.05,-12.31 114.378,-36.657 152.627,-82.24 41.832,-49.268 55.294,-115.385 59.164,-178.33 1.218,-19.563 1.619,-39.164 1.443,-58.762 -1.156,-39.226 -9.259,-77.914 -19.176,-115.763 -8.029,-28.156 -16.123,-56.911 -31.098,-82.297 -5.418,-8.214 -12.245,-15.334 -18.982,-22.449 -10.385,-10.378 -20.371,-21.333 -32.129,-30.186 -39.186,-29.105 -90.569,-39.992 -134.909,-15.733 -22.923,11.919 -41.54,31.68 -52.209,55.198 -25.498,56.548 -17.532,121.049 -35.336,179.633 -3.6,11.622 -7.819,23.249 -14.989,33.185 -12.088,17.554 -30.985,30.319 -51.886,34.662 C 43.509,-143.104 -8.176,-142.473 0,0 m 0.654,-0.069 c -8,-142.112 43.375,-142.208 164.723,-160.529 21.143,-4.37 40.261,-17.262 52.5,-35.004 7.236,-10.012 11.512,-21.743 15.144,-33.441 14.953,-49.439 11.813,-102.251 25.304,-151.999 8.892,-34.078 27.163,-63.169 58.462,-80.681 40.039,-23.424 86.576,-18.074 125.204,5.648 17.098,9.749 30.483,24.402 44.272,38.229 6.719,7.076 13.543,14.191 18.937,22.348 14.956,25.298 23.069,54.033 31.113,82.122 9.968,37.788 18.042,76.482 19.144,115.652 0.155,19.579 -0.266,39.177 -1.503,58.72 -3.923,62.803 -17.401,128.786 -59.201,177.881 -38.19,45.412 -95.368,69.528 -152.248,81.809 -4.332,0.808 -10.081,2.373 -14.376,2.83 -9.7,1.165 -19.468,1.996 -29.232,2.616 C 224.146,130.088 136.883,124.474 69.681,89.205 34.486,70.489 6.676,40.429 0.654,-0.069"
                   style="fill:#4d4d4d;fill-opacity:1;fill-rule:nonzero;stroke:none"
                   id="path228" />
              </g>
              <g
                 transform="translate(875.389,121.0276)"
                 id="g234">
                <path
                   d="m 0,0 c -5.455,-7.409 -11.832,-14.033 -18.183,-20.656 -9.73,-9.685 -19.053,-20.023 -30.384,-27.874 -26.13,-18.444 -58.933,-29.345 -90.991,-23.975 -18.163,3.055 -35.326,11.07 -49.908,22.222 -20.253,15.437 -33.339,38.539 -40.406,62.694 -8.454,28.66 -10.705,58.631 -14.377,88.133 -3.482,27.051 -7.38,54.887 -19.888,79.422 -10.599,20.091 -29.585,36.281 -52.131,40.773 -4.138,0.894 -9.387,1.706 -13.507,2.476 -18.048,3.157 -36.18,5.852 -54.187,9.33 -17.89,3.651 -36.201,7.823 -51.839,17.675 -34.846,21.849 -39.54,67.486 -37.07,105.038 0.215,5.416 0.924,11.742 1.427,17.131 11.07,89.767 123.828,113.3 198.893,118.888 C -138.011,500.015 -3.45,467.426 34.86,321.407 45.334,281.406 48.165,239.874 48.498,198.669 49.166,166.527 43.624,134.593 36.624,103.337 30.396,76.562 22.885,49.992 12.529,24.495 8.98,16.036 5.245,7.577 0,0 m -0.535,0.382 c 5.19,7.514 8.915,15.966 12.431,24.374 10.314,25.464 17.789,52.01 23.981,78.752 6.959,31.21 12.456,63.078 11.762,95.154 -0.364,41.127 -3.221,82.597 -13.702,122.499 -38.409,145.655 -172.109,178 -306.444,169.49 -74.679,-5.43 -187.668,-28.924 -198.493,-118.311 -0.434,-5.38 -1.225,-11.74 -1.406,-17.109 -2.416,-37.348 2.23,-82.808 36.925,-104.51 15.563,-9.779 33.823,-13.918 51.645,-17.532 17.988,-3.45 36.125,-6.122 54.185,-9.257 4.117,-0.763 9.547,-1.601 13.533,-2.462 25.132,-4.956 45.646,-24.208 55.766,-47.299 27.681,-63.758 9.939,-147.331 52.228,-204.362 10.96,-14.63 25.996,-25.992 42.6,-33.497 38.817,-18.118 82.625,-8.319 116.547,15.741 11.321,7.831 20.587,18.114 30.307,27.765 6.328,6.582 12.711,13.213 18.135,20.564"
                   style="fill:#4d4d4d;fill-opacity:1;fill-rule:nonzero;stroke:none"
                   id="path232" />
              </g>
              <g
                 transform="translate(861.7573,143.3234)"
                 id="g238">
                <path
                   d="m 0,0 c -5.041,-6.904 -10.947,-13.074 -16.834,-19.238 -9.018,-9.017 -17.681,-18.617 -28.19,-25.933 -33.642,-24.045 -77.188,-32.307 -114.759,-12.187 -75.017,37.973 -58.116,131.456 -77.889,199.792 -3.894,13.168 -9.038,26.255 -17.89,36.931 -1.081,1.427 -2.964,3.444 -4.158,4.798 -0.668,0.703 -2.719,2.659 -3.385,3.349 -0.865,0.731 -2.728,2.396 -3.59,3.128 -0.671,0.545 -3.095,2.339 -3.786,2.888 -1.036,0.677 -2.957,1.971 -3.97,2.627 -6.308,3.778 -13.288,6.773 -20.5,8.277 -20.836,4.175 -41.98,7.002 -62.843,11.116 -16.615,3.411 -33.621,7.276 -48.182,16.37 -30.675,18.965 -36.383,57.8 -35.014,91.048 0.156,7.284 0.988,15.029 1.653,22.292 4.973,46.994 43.09,75.402 84.65,90.695 56.2,20.207 117.301,23.859 176.479,19.452 86.284,-7.341 164.682,-42.378 199.3,-126.581 2.402,-5.628 4.746,-12.141 6.644,-17.994 0.557,-1.504 1.459,-4.566 1.899,-6.106 C 42.256,261.687 44.772,216.45 44.625,171.855 42.859,129.275 33.116,87.316 20.349,46.786 14.846,30.721 9.391,14.285 0,0 m -0.536,0.38 c 9.324,14.222 14.744,30.626 20.208,46.627 12.702,40.461 22.385,82.381 24.105,124.869 0.11,44.504 -2.445,89.692 -15.064,132.573 -0.426,1.518 -1.363,4.593 -1.897,6.082 -1.903,5.822 -4.225,12.307 -6.631,17.914 -34.63,84 -112.31,118.756 -198.455,126.247 -59.077,4.478 -120.108,0.886 -176.238,-19.219 -39.957,-14.619 -77.988,-42.12 -83.958,-87.108 -1.344,-10.367 -2.054,-21.336 -2.188,-31.791 -0.469,-31.2 6.462,-66.62 34.996,-84.153 14.487,-9.024 31.442,-12.854 47.991,-16.229 16.701,-3.235 33.543,-5.743 50.313,-8.687 8.341,-1.445 17.002,-2.793 24.772,-6.249 1.13,-0.572 3.288,-1.514 4.347,-2.068 0.78,-0.465 3.352,-1.873 4.191,-2.369 0.999,-0.617 3.084,-2.055 4.018,-2.651 0.727,-0.584 3.054,-2.298 3.831,-2.914 0.871,-0.733 2.81,-2.455 3.633,-3.157 0.705,-0.662 2.691,-2.677 3.426,-3.379 1.21,-1.387 3.119,-3.389 4.208,-4.841 8.939,-10.752 14.147,-23.92 18.093,-37.194 19.914,-68.001 2.796,-161.519 77.428,-199.314 37.253,-19.998 80.551,-11.824 113.972,12.042 10.497,7.295 19.104,16.841 28.112,25.823 5.865,6.124 11.777,12.301 16.787,19.146"
                   style="fill:#4d4d4d;fill-opacity:1;fill-rule:nonzero;stroke:none"
                   id="path236" />
              </g>
              <g
                 transform="translate(848.1257,165.6194)"
                 id="g242">
                <path
                   d="m 0,0 c -4.627,-6.398 -10.062,-12.114 -15.486,-17.82 -8.304,-8.35 -16.309,-17.212 -26.001,-23.985 -28.812,-20.808 -67.473,-29.218 -100.692,-14.047 -21.996,9.579 -39.917,26.34 -50.002,48.198 -13.482,28.739 -15.819,60.862 -20.074,91.863 -3.177,23.212 -6.779,46.924 -17.293,68.084 -7.223,13.822 -18.71,25.64 -33.021,32.062 -4.366,2.023 -9.213,3.45 -13.927,4.414 -26.001,5.097 -52.573,7.887 -78.06,15.378 -34.886,9.988 -50.515,34.662 -53.652,69.815 -0.878,9.699 -0.875,19.756 -0.251,29.475 0.753,11.694 1.686,23.751 5.86,34.798 22.684,61.149 107.746,77.95 165.59,82.223 92.266,6.534 200.534,-11.363 247.596,-100.862 C 36.641,270.608 40.577,213.306 40.79,158.801 39.319,119.473 30.427,80.695 18.707,43.246 13.658,28.397 8.63,13.221 0,0 m -0.538,0.377 c 8.564,13.159 13.557,28.303 18.567,43.089 11.656,37.378 20.488,76.117 21.913,115.352 -0.226,52.433 -3.997,107.387 -27.527,155.088 -34.135,69.994 -104.731,99.099 -178.774,105.416 -54.546,4.133 -110.903,0.834 -162.72,-17.757 -30.738,-11.341 -61.699,-31.305 -73.125,-63.473 -2.7,-7.365 -4.199,-15.131 -4.848,-22.943 -0.782,-7.611 -1.289,-15.857 -1.371,-23.506 -0.359,-29.045 5.992,-61.254 32.581,-77.527 13.41,-8.269 29.061,-11.79 44.338,-14.925 19.235,-3.83 38.81,-6.387 58.038,-10.341 7.69,-1.75 15.035,-5.171 21.525,-9.616 64.439,-45.602 18.758,-170.895 89.81,-222.594 37.253,-27.953 83.224,-24.338 120.231,2.137 9.681,6.751 17.63,15.558 25.924,23.874 5.402,5.665 10.841,11.388 15.438,17.726"
                   style="fill:#4d4d4d;fill-opacity:1;fill-rule:nonzero;stroke:none"
                   id="path240" />
              </g>
              <g
                 transform="translate(834.4943,187.9156)"
                 id="g246">
                <path
                   d="m 0,0 c -4.213,-5.892 -9.178,-11.154 -14.138,-16.402 -6.321,-6.418 -12.493,-13.076 -19.475,-18.784 -27.041,-21.485 -64.237,-30.799 -96.724,-16.371 -79.08,34.359 -51.603,126.309 -81.904,190.015 -8.156,15.889 -22.57,28.907 -40.079,33.354 -17.595,3.774 -35.494,6.12 -53.144,9.727 -14.071,2.929 -28.464,6.171 -40.874,13.753 -28.015,17.092 -31.88,52.288 -29.92,82.229 0.382,5.959 0.969,12.943 1.884,18.841 3.335,20.677 15.849,38.984 32.498,51.39 44.221,32.855 112.156,39.363 165.884,38.151 C -93.8,383.719 -14.678,355.238 17.504,273.426 32.889,234.696 36.273,192.454 36.956,151.173 37,142.22 36.487,133.047 35.469,124.154 31.7,91.929 24.245,60.1 13.561,29.473 9.925,19.325 5.857,9.104 0,0 m -0.54,0.375 c 5.801,9.077 9.838,19.229 13.443,29.333 10.624,30.575 18.029,62.379 21.751,94.534 1.006,8.864 1.498,17.998 1.448,26.918 -0.723,41.196 -4.134,83.316 -19.505,121.902 -32.197,81.567 -110.588,109.806 -192.61,112.157 -53.641,1.276 -121.384,-5.108 -165.586,-37.83 -16.578,-12.327 -29.077,-30.506 -32.341,-51.1 -0.877,-5.886 -1.508,-12.823 -1.853,-18.796 -1.896,-29.712 1.921,-64.768 29.767,-81.694 12.337,-7.513 26.684,-10.723 40.691,-13.617 17.661,-3.578 35.559,-5.891 53.2,-9.646 17.736,-4.472 32.353,-17.621 40.637,-33.694 30.44,-63.275 3.037,-155.717 81.482,-189.652 32.194,-14.335 69.12,-5.118 95.964,16.179 6.969,5.685 13.111,12.308 19.423,18.698 4.937,5.208 9.906,10.475 14.089,16.308"
                   style="fill:#4d4d4d;fill-opacity:1;fill-rule:nonzero;stroke:none"
                   id="path244" />
              </g>
              <g
                 transform="translate(820.863,210.212)"
                 id="g250">
                <path
                   d="m 0,0 c -3.801,-5.385 -8.295,-10.194 -12.792,-14.984 -5.732,-5.862 -11.328,-11.913 -17.68,-17.126 -19.271,-15.199 -44.401,-24.28 -69.044,-20.5 -25.987,4.159 -50.05,20.726 -61.997,44.329 -20.802,40.69 -13.922,89.23 -32.367,130.695 -6.475,13.985 -17.964,25.987 -32.506,31.488 -4.429,1.793 -9.513,2.726 -14.211,3.567 -12.881,2.412 -25.837,4.445 -38.698,7.052 -12.811,2.658 -25.85,5.701 -37.221,12.45 -17.577,10.393 -25.746,30.398 -27.285,50.041 -0.962,9.813 -0.71,19.69 0.081,29.5 0.777,9.803 2.134,19.71 6.252,28.739 16.81,37.222 59.65,51.956 96.977,59.399 46.707,8.518 100.497,8.694 146.432,-3.877 C -36.44,325.593 4.473,287.696 21.091,230.112 30.609,196.934 33.325,162.146 32.984,127.777 32.165,109.748 29.282,91.834 25.491,74.214 21.992,58.208 17.723,42.307 12.263,26.85 8.979,17.609 5.289,8.307 0,0 m -0.542,0.371 c 5.235,8.28 8.893,17.515 12.147,26.712 5.426,15.437 9.666,31.31 13.137,47.293 3.758,17.589 6.611,35.451 7.401,53.433 0.301,34.264 -2.455,69.019 -11.968,102.031 -16.632,57.24 -57.1,94.977 -114.446,110.167 -45.834,12.622 -99.47,12.515 -146.113,4.083 -37.19,-7.355 -79.937,-21.95 -96.706,-59.003 -4.08,-8.995 -5.416,-18.853 -6.173,-28.613 -0.773,-9.781 -1.012,-19.639 -0.037,-29.412 1.561,-19.46 9.652,-39.317 27.091,-49.582 11.302,-6.683 24.294,-9.694 37.044,-12.317 12.844,-2.578 25.805,-4.588 38.7,-6.977 4.793,-0.842 9.863,-1.774 14.349,-3.579 14.747,-5.546 26.414,-17.682 33,-31.84 18.607,-41.409 11.689,-89.988 32.372,-130.645 11.813,-23.391 35.621,-39.795 61.346,-43.95 24.431,-3.771 49.357,5.222 68.486,20.273 6.308,5.169 11.924,11.217 17.628,17.039 4.474,4.75 8.971,9.561 12.742,14.887"
                   style="fill:#4d4d4d;fill-opacity:1;fill-rule:nonzero;stroke:none"
                   id="path248" />
              </g>
              <g
                 transform="translate(807.2319,232.5087)"
                 id="g254">
                <path
                   d="m 0,0 c -3.389,-4.878 -7.412,-9.233 -11.445,-13.566 -5.141,-5.293 -10.18,-10.777 -15.888,-15.468 -22.065,-17.725 -52.59,-25.301 -79.301,-13.918 -59.239,24.287 -49.938,86.2 -64.724,137.243 -1.916,6.311 -4.243,12.56 -7.296,18.415 -6.602,12.202 -17.646,22.281 -31.046,26.345 -1.485,0.487 -2.786,0.786 -4.249,1.111 -13.013,2.622 -26.145,4.65 -39.166,7.326 -15.667,3.341 -32.65,7.318 -43.92,19.534 -17.458,19.279 -16.307,47.644 -13.596,71.883 3.503,31.166 29.957,51.294 57.628,61.405 51.127,18.606 122.685,19.866 174.557,3.467 47.653,-14.651 81.844,-48.615 96.073,-96.481 8.178,-26.957 10.783,-55.173 11.614,-83.191 -0.006,-2.623 0.049,-6.299 -0.06,-8.88 C 28.536,98.981 26.021,82.831 22.684,66.944 18.96,49.619 14.327,32.438 7.861,15.919 5.718,10.477 3.126,4.965 0,0 m -0.545,0.367 c 3.069,4.96 5.652,10.394 7.77,15.806 6.423,16.485 11.021,33.639 14.709,50.929 3.304,15.856 5.789,31.954 6.406,48.15 0.148,2.552 0,6.236 0.048,8.829 -0.861,27.938 -3.501,56.123 -11.675,82.934 -10.057,33.844 -32.133,64.333 -63.115,81.835 -54.941,32.097 -147.431,32.312 -206.419,10.98 -21.722,-8.154 -43.449,-21.868 -52.817,-43.987 -4.746,-10.869 -5.4,-22.928 -5.965,-34.621 -0.703,-19.408 1.911,-41.214 16.533,-55.374 6.816,-6.779 15.835,-10.717 24.924,-13.499 16.987,-5.025 34.63,-7.238 51.996,-10.618 16.569,-2.268 30.74,-12.325 39.112,-26.698 3.752,-6.388 6.321,-13.434 8.516,-20.49 14.864,-50.632 5.458,-112.731 64.196,-136.742 26.429,-11.301 56.679,-3.818 78.553,13.72 5.693,4.666 10.702,10.114 15.833,15.379 4.01,4.293 8.035,8.649 11.395,13.467"
                   style="fill:#4d4d4d;fill-opacity:1;fill-rule:nonzero;stroke:none"
                   id="path252" />
              </g>
              <g
                 transform="translate(793.6011,254.8058)"
                 id="g258">
                <path
                   d="m 0,0 c -2.995,-4.374 -6.536,-8.282 -10.101,-12.147 -4.556,-4.739 -9.022,-9.618 -14.091,-13.82 -19.709,-15.881 -46.624,-22.543 -70.59,-12.694 -27.403,11.04 -40.67,31.239 -47.248,59.233 -9.705,36.77 -6.608,94.984 -53.938,103.981 -15.44,3.096 -31.14,5.222 -46.276,9.715 -30.658,8.558 -38.713,32.028 -37.621,61.52 0.132,3.554 0.446,8.261 0.865,11.8 1.867,30.306 24.687,48.822 51.412,58.809 46.569,16.716 108.061,17.692 155.337,3.194 42.112,-12.722 73.405,-42.964 86.435,-85.118 7.922,-25.149 10.67,-51.612 11.234,-77.852 C 25.425,90.829 23.013,75.116 19.911,59.667 16.688,44.23 12.628,28.925 6.934,14.201 5.037,9.354 2.753,4.438 0,0 m -0.548,0.363 c 2.701,4.428 4.972,9.272 6.845,14.09 5.651,14.689 9.676,29.967 12.863,45.368 3.067,15.409 5.442,31.061 5.41,46.795 -0.596,26.145 -3.383,52.573 -11.296,77.563 -13.083,41.882 -43.871,71.882 -85.771,84.639 -47.116,14.556 -108.418,13.68 -154.909,-2.9 -26.558,-9.899 -49.376,-28.185 -51.145,-58.378 -0.39,-3.552 -0.735,-8.173 -0.841,-11.768 -1.014,-29.202 6.89,-52.489 37.331,-60.906 15.115,-4.456 30.789,-6.537 46.23,-9.598 47.72,-8.884 45.107,-67.445 54.681,-104.481 6.499,-27.758 19.527,-47.713 46.668,-58.692 23.688,-9.773 50.332,-3.2 69.853,12.494 5.035,4.167 9.498,9.026 14.031,13.728 3.558,3.843 7.098,7.748 10.05,12.046"
                   style="fill:#4d4d4d;fill-opacity:1;fill-rule:nonzero;stroke:none"
                   id="path256" />
              </g>
              <g
                 transform="translate(779.9706,277.1035)"
                 id="g262">
                <path
                   d="m 0,0 c -2.584,-3.866 -5.657,-7.319 -8.758,-10.727 -3.969,-4.201 -7.884,-8.439 -12.293,-12.192 -21.962,-17.642 -50.227,-20.845 -74.253,-5.23 -44.899,26.464 -27.339,88.968 -55.17,122.58 -5.999,6.875 -14.199,11.83 -23.161,13.644 -9.02,1.81 -18.088,3.394 -27.101,5.312 -8.981,1.986 -18.111,4.105 -26.22,8.626 -23.921,13.395 -22.727,45.388 -18.305,68.891 0.596,1.888 1.338,4.786 2.199,6.566 1.437,3.675 3.577,7.378 5.896,10.561 25.709,34.2 90.84,38.297 130.446,35.144 31.867,-2.752 64.861,-12.315 88.406,-34.944 C 11.909,179.913 19.661,136.688 21.529,97.046 22.039,82.051 20.002,67.074 17.142,52.392 13.253,34.449 9.139,16.127 0,0 m -0.552,0.357 c 12.828,22.459 21.586,67.191 21.303,93.211 -1.426,40.538 -8.99,84.906 -39.713,113.986 -23.349,22.541 -56.15,32.098 -87.819,34.908 -39.42,3.228 -104.368,-0.705 -130.042,-34.683 -0.918,-1.384 -2.074,-2.828 -2.832,-4.302 0,0 -1.661,-3.009 -1.661,-3.009 -0.776,-1.459 -1.321,-3.234 -2.029,-4.737 -0.392,-1.019 -1.134,-3.838 -1.5,-4.931 -4.311,-23.262 -5.52,-55.056 18.18,-68.269 8.045,-4.461 17.139,-6.551 26.066,-8.502 8.998,-1.891 18.073,-3.451 27.106,-5.24 9.128,-1.821 17.495,-6.847 23.618,-13.827 28.403,-34.478 10.628,-96.26 55.005,-122.402 23.772,-15.468 51.601,-12.356 73.398,5.09 7.592,6.845 14.981,14.374 20.92,22.707"
                   style="fill:#4d4d4d;fill-opacity:1;fill-rule:nonzero;stroke:none"
                   id="path260" />
              </g>
              <g
                 transform="translate(766.3406,299.402)"
                 id="g266">
                <path
                   d="m 0,0 c -2.175,-3.356 -4.781,-6.355 -7.419,-9.308 -4.065,-4.315 -8.026,-8.866 -12.857,-12.346 -18.587,-13.841 -41.665,-15.637 -61.517,-3.272 -22.995,12.501 -28.812,36.437 -33.771,60.141 -3.451,15.156 -6.297,31.443 -16.305,43.837 -5.018,5.99 -11.857,10.525 -19.45,12.467 -7.676,1.714 -15.494,3.067 -23.213,4.779 -11.387,2.615 -23.923,5.516 -31.839,14.8 -10.477,12.546 -9.997,30.215 -8.059,45.561 0.227,2.212 0.746,4.4 1.169,6.589 l 0.219,0.712 0.443,1.422 0.443,1.422 0.225,0.71 c 0.802,1.869 1.801,4.322 2.873,6.047 5.322,9.59 14.484,16.506 24.131,21.399 24.217,11.592 51.759,14.016 78.284,13.519 23.663,-0.732 47.748,-5.041 68.761,-16.374 C 0.211,171.611 13.425,133.247 16.977,92.409 18.83,76.626 17.337,60.673 14.379,45.124 11.201,29.668 7.742,13.923 0,0 m -0.557,0.35 c 7.624,13.78 11.071,29.578 14.184,44.915 2.909,15.493 4.358,31.358 2.484,47.062 -3.562,40.386 -16.803,78.67 -54.413,99.011 -20.86,11.323 -44.827,15.667 -68.362,16.457 -26.432,0.56 -53.889,-1.788 -78.043,-13.275 -9.579,-4.833 -18.691,-11.663 -23.99,-21.164 -1.141,-1.658 -2.005,-4.158 -2.845,-5.986 0,0 -0.221,-0.703 -0.221,-0.703 l -0.435,-1.41 c -0.163,-0.488 -0.498,-1.643 -0.65,-2.114 -0.411,-2.175 -0.921,-4.328 -1.143,-6.542 -2.639,-18.568 -1.671,-42.697 17.201,-52.393 6.964,-3.701 14.733,-5.576 22.398,-7.269 7.722,-1.689 15.497,-3.006 23.254,-4.714 7.752,-1.958 14.744,-6.562 19.881,-12.656 24.028,-30.906 10.37,-81.919 49.888,-103.779 20.681,-12.901 44.278,-10.134 63.027,4.895 6.462,5.984 12.794,12.395 17.785,19.665"
                   style="fill:#4d4d4d;fill-opacity:1;fill-rule:nonzero;stroke:none"
                   id="path264" />
              </g>
              <g
                 transform="translate(752.7111,321.7016)"
                 id="g270">
                <path
                   d="m 0,0 c -4.379,-6.577 -9.85,-12.374 -15.745,-17.599 -15.745,-12.253 -35.156,-14.362 -52.542,-4.12 -31.273,16.534 -26.806,49.458 -39.929,76.967 -4.512,10.554 -14.124,18.861 -25.554,20.817 0,0 -4.851,1.014 -4.851,1.014 -9.675,2.132 -19.607,3.75 -28.574,8.231 -16.423,8.034 -17.588,27.91 -15.213,43.903 4.573,45.463 80.149,47.489 114.353,41.275 17.871,-3.207 35.586,-9.922 49.352,-22.08 C 4.484,128.493 12.003,96.858 13.978,67.542 14.407,57.599 13.294,47.65 11.627,37.866 9.161,24.895 6.346,11.722 0,0 m -0.562,0.34 c 9.128,16.952 14.51,47.876 13.694,67.16 -2.009,29.084 -9.566,60.379 -32.454,80.204 -29.039,25.545 -76.249,28.221 -112.838,21.759 -18.685,-3.662 -40.289,-11.487 -47.648,-30.705 -2.145,-6.214 -2.7,-12.918 -2.996,-19.452 -0.753,-32.303 17.386,-36.154 44.323,-41.549 0,0 4.856,-0.996 4.856,-0.996 11.658,-1.953 21.521,-10.41 26.163,-21.149 13.291,-27.285 8.636,-60.199 39.59,-76.609 17.094,-10.116 36.188,-8.071 51.717,3.979 5.804,5.13 11.284,10.916 15.593,17.358"
                   style="fill:#4d4d4d;fill-opacity:1;fill-rule:nonzero;stroke:none"
                   id="path268" />
              </g>
              <g
                 transform="translate(739.0826,344.003)"
                 id="g274">
                <path
                   d="m 0,0 c -3.095,-5.04 -7.146,-9.334 -11.358,-13.44 -8.809,-7.779 -21.296,-11.886 -32.906,-9.078 -5.775,1.31 -11.169,3.973 -15.976,7.362 -3.823,2.33 -7.53,5.495 -10.386,9.098 -11.75,14.62 -12.223,34.598 -21.52,50.424 -4.222,8.086 -12.169,13.968 -21.154,15.598 -12.716,3.203 -29.491,4.736 -35.319,18.438 -3.659,8.603 -2.736,18.279 -1.159,27.241 0.875,4.537 2.847,8.85 5.695,12.488 17.893,21.888 65.837,22.058 91.39,16.136 C -23.916,128.081 -2.867,109.359 5.142,80.845 7.756,72.054 9.451,62.893 10.256,53.756 10.758,44.549 9.779,35.338 8.167,26.286 6.395,17.277 4.32,8.19 0,0 M -0.57,0.327 C 6.741,14.789 10.222,37.531 9.412,53.701 7.605,71.706 3.196,90.25 -7.545,105.107 c -22.225,30.743 -64.93,35.072 -99.865,29.989 -17.129,-2.762 -38.322,-10.317 -41.948,-29.531 -2.433,-12.749 -2.714,-29.642 10.096,-36.934 3.929,-2.289 8.319,-3.7 12.727,-4.881 4.419,-1.179 8.905,-2.127 13.384,-3.106 9.143,-1.598 17.397,-7.654 21.717,-15.868 9.424,-15.751 9.898,-35.693 21.493,-50.284 2.831,-3.563 6.313,-6.576 10.189,-8.956 4.729,-3.352 10.021,-5.972 15.666,-7.27 11.368,-2.779 23.582,1.218 32.246,8.81 4.151,4.016 8.23,8.33 11.27,13.251"
                   style="fill:#4d4d4d;fill-opacity:1;fill-rule:nonzero;stroke:none"
                   id="path272" />
              </g>
              <g
                 transform="translate(725.4554,366.3073)"
                 id="g278">
                <path
                   d="m 0,0 c -7.339,-12.775 -21.115,-22.003 -36.141,-17.412 -4.638,1.394 -8.885,3.836 -12.694,6.753 -2.764,1.753 -5.619,4.187 -7.798,6.83 -9.048,10.667 -10.825,25.351 -19,36.482 -3.802,5.672 -9.857,9.614 -16.511,11.059 -9.562,2.47 -21.971,4.647 -25.531,15.323 -2.281,6.621 -1.346,13.82 0.217,20.485 0.869,3.352 2.496,6.535 4.844,9.099 14.446,15.717 49.581,15.217 69.043,10.753 13.48,-2.998 26.389,-9.798 35.139,-20.674 C 0.248,67.824 4.694,54.16 6.525,40.515 7.219,33.611 6.697,26.676 5.701,19.858 4.589,13.052 3.095,6.221 0,0 M -0.581,0.308 C 2.431,6.43 3.896,13.253 4.96,19.97 5.918,26.74 6.402,33.635 5.686,40.427 4.842,47.183 3.098,53.895 0.749,60.29 c -7.217,20.292 -23.647,33.706 -44.502,38.307 -19.23,4.535 -54.174,5.188 -68.527,-10.275 -2.309,-2.507 -3.938,-5.608 -4.775,-8.905 -1.512,-6.563 -2.402,-13.73 -0.132,-20.206 3.569,-10.462 15.786,-12.435 25.2,-14.84 6.792,-1.421 13.098,-5.481 17.004,-11.248 8.288,-11.08 10.137,-25.728 19.032,-36.379 2.175,-2.627 4.773,-4.882 7.639,-6.722 3.741,-2.883 7.895,-5.283 12.405,-6.653 14.662,-4.538 28.115,4.511 35.326,16.939"
                   style="fill:#4d4d4d;fill-opacity:1;fill-rule:nonzero;stroke:none"
                   id="path276" />
              </g>
              <g
                 transform="translate(711.8304,388.6167)"
                 id="g282">
                <path
                   d="m 0,0 c -5.126,-10.481 -16.712,-17.225 -28.069,-12.304 -3.41,1.406 -6.772,3.834 -9.332,6.109 -11.792,7.835 -14.133,24.351 -26.958,30.987 -6.048,3.373 -13.675,3.498 -18.88,8.455 -5.345,5.148 -4.147,13.474 -1.922,19.826 3.552,9.149 14.359,11.968 23.185,13.015 18.111,1.638 38.662,-0.84 52.141,-14.193 C -3.306,45.222 1.041,36.532 2.915,27.418 4.357,18.257 3.641,8.59 0,0 m -0.595,0.278 c 3.507,8.397 4.162,18.054 2.685,26.987 -2.76,13.408 -11.271,25.792 -23.671,31.94 -14.134,7.285 -38.914,9.27 -53.633,2.987 -4.134,-1.837 -7.949,-4.933 -9.555,-9.269 -2.177,-6.15 -3.288,-14.342 1.906,-19.284 5.188,-4.839 12.818,-4.906 18.838,-8.227 12.947,-6.48 15.559,-22.958 27.121,-30.879 2.763,-2.44 5.779,-4.635 9.156,-6.069 10.969,-4.814 22.151,1.735 27.153,11.814"
                   style="fill:#4d4d4d;fill-opacity:1;fill-rule:nonzero;stroke:none"
                   id="path280" />
              </g>
              <g
                 transform="translate(642.5068,428.7769)"
                 id="g286">
                <path
                   d="m 0,0 c -0.678,5.017 2.819,9.882 7.396,11.648 2.27,0.953 4.705,1.341 7.105,1.557 7.203,0.467 14.505,0.448 21.535,-1.429 9.216,-2.369 18.251,-8.966 20.252,-18.711 2.411,-9.414 -3.787,-21.567 -14.64,-20.324 -4.952,0.64 -8.92,4.114 -12.041,7.754 -2.101,1.715 -4.543,4.264 -6.797,6.119 -2.345,1.91 -4.946,3.57 -7.806,4.497 C 9.173,-7.287 1.335,-7.765 0,0 m 0.65,0.096 c 1.273,-7.242 8.979,-6.625 14.615,-8.159 3.02,-0.952 5.713,-2.645 8.145,-4.587 2.437,-1.973 4.587,-4.206 6.897,-6.21 1.538,-1.817 3.184,-3.548 5.089,-4.932 6.154,-4.707 13.979,-3.34 18.211,3.157 2.576,3.945 3.247,9.002 2.282,13.613 -2.077,9.52 -10.992,15.85 -20.053,18.028 -6.907,1.689 -14.19,1.722 -21.265,1.35 C 12.218,12.164 9.859,11.799 7.698,10.915 3.388,9.312 0.064,4.755 0.65,0.096"
                   style="fill:#4d4d4d;fill-opacity:1;fill-rule:nonzero;stroke:none"
                   id="path284" />
              </g>
            </g>
          </g>
        </g>
        <g
           id="g292"
           transform="translate(-171.7617,102.6416)">
          <path
             d="m 0,0 c 95.43,-23.005 178.744,-10.49 238.565,73.243 12.663,16.633 29.585,27.135 50.12,30.988 21.548,4.141 43.671,2.58 65.362,5.074 27.992,2.686 55.608,13.21 76.319,32.561 22.204,20.363 38.06,46.581 60.177,67.048 5.234,4.918 11.161,9.661 17.052,13.752 1.235,0.713 5.618,3.686 6.952,4.398 2.281,1.195 4.919,2.775 7.233,3.923 1.321,0.545 6.073,2.866 7.484,3.421 2.024,0.807 5.733,2.123 7.703,2.896 5.069,1.67 10.656,3.12 15.901,4.188 1.826,0.533 3.594,0.663 5.393,0.973 34.376,5.405 69.542,-0.532 102.88,-9.22 8.526,-2.283 17.8,-5.233 26.024,-8.451 46.775,-17.657 80.8,-50.051 95.847,-98.313 16.116,-48.85 11.268,-101.353 22.654,-151.082 2.679,-10.548 6.333,-20.959 12.114,-30.223 3.9,-6.12 8.468,-11.866 12.403,-17.987 48.581,-73.189 74.499,-182.606 9.942,-254.136 69.607,78.344 33.483,196.428 -22.865,271.799 -9.661,15.621 -13.658,33.93 -16.335,51.885 -6.031,43.169 -5.055,87.681 -18.666,129.5 -15.02,47.994 -48.858,80.167 -95.429,97.69 -8.222,3.181 -17.416,6.148 -25.937,8.396 -34.921,9.017 -72.009,15.225 -107.839,8.247 -5.256,-0.998 -10.732,-2.566 -15.792,-4.142 -1.846,-0.644 -5.9,-2.246 -7.647,-2.866 -1.465,-0.669 -5.862,-2.645 -7.43,-3.389 -2.325,-1.108 -4.868,-2.692 -7.182,-3.886 -14.872,-8.765 -27.693,-20.748 -39.003,-33.71 -15.683,-17.708 -29.279,-37.442 -47.149,-53.117 -20.57,-18.34 -47.526,-28.248 -74.728,-30.856 -21.736,-2.477 -43.78,-0.891 -65.314,-5.002 C 265.882,99.292 249.175,87.406 235.692,68.561 176.563,-11.886 91.927,-22.657 0,0"
             style="fill:#4d4d4d;fill-opacity:1;fill-rule:nonzero;stroke:none"
             id="path294" />
        </g>
        <g
           id="g296"
           transform="translate(304.2765,295.9363)">
          <path
             d="m 0,0 c 14.988,18.734 30.061,37.617 41.847,58.587 33.297,57.941 30.921,128.047 19.235,191.802 -2.12,12.478 -4.94,25.299 -7.718,37.672 2.938,-12.377 5.918,-25.115 8.199,-37.585 C 73.254,188.161 76.328,119.679 44.707,62.502 32.64,39.804 16.265,19.763 0,0"
             style="fill:#4d4d4d;fill-opacity:1;fill-rule:nonzero;stroke:none"
             id="path298" />
        </g>
        <g
           id="g300"
           transform="translate(451.9128,343.4783)">
          <path
             d="m 0,0 c -18.01,2.566 -36.093,8.572 -50.187,20.425 -24.078,19.58 -32.666,53.066 -28.668,82.944 -0.678,-6.044 -0.741,-12.141 -0.367,-18.196 C -76.439,37.204 -46.811,7.445 0,0"
             style="fill:#4d4d4d;fill-opacity:1;fill-rule:nonzero;stroke:none"
             id="path302" />
        </g>
        <g
           id="g304"
           transform="translate(132.3108,208.6612)">
          <path
             d="m 0,0 c -34.597,-2.469 -49.149,16.988 -50.121,49.783 -0.836,29.962 5.338,60.112 18.285,87.169 16.161,34.585 39.705,65.2 64.624,93.886 5.298,6.072 10.067,12.865 13.181,20.324 19.516,47.829 -29.77,93.656 -64.029,120.36 -17.246,13.244 -35.463,25.266 -54.517,35.756 19.141,-10.353 37.455,-22.243 54.814,-35.367 C 16.884,345.084 66.348,299.154 46.777,250.823 43.638,243.254 38.845,236.385 33.495,230.219 8.727,201.505 -14.958,171.116 -31.14,136.628 -44.114,109.695 -50.339,79.669 -49.585,49.803 -48.674,17.204 -34.616,-2.185 0,0"
             style="fill:#4d4d4d;fill-opacity:1;fill-rule:nonzero;stroke:none"
             id="path306" />
        </g>
        <g
           id="g308"
           transform="translate(82.3717,261.9212)">
          <path
             d="m 0,0 c 1.808,-30.423 -2.579,-62.041 -18.454,-88.528 0,0 -3.456,-5.566 -3.456,-5.566 l -3.701,-5.399 C -5.07,-68.795 0.556,-36.326 0,0"
             style="fill:#4d4d4d;fill-opacity:1;fill-rule:nonzero;stroke:none"
             id="path310" />
        </g>
        <g
           id="g312"
           transform="translate(620.9532,182.5645)">
          <path
             d="m 0,0 c -6.875,42.607 -5.19,94.791 -42.593,123.802 -14.808,11.112 -32.136,18.432 -49.939,23.287 -20.425,5.711 -41.618,7.66 -62.458,11.279 20.92,-3.249 42.144,-4.967 62.632,-10.637 19.141,-5.159 38.002,-13.051 53.47,-25.656 C -4.532,92.251 -5.928,41.571 0,0"
             style="fill:#4d4d4d;fill-opacity:1;fill-rule:nonzero;stroke:none"
             id="path314" />
        </g>
        <g
           id="g316"
           transform="translate(831.8096,7.6564)">
          <path
             d="m 0,0 c -78.782,-18.705 -171.93,-2.425 -201.228,82.942 0,0 0.618,0.223 0.618,0.223 3.499,-9.318 7.732,-18.367 12.966,-26.838 C -149.026,-7.521 -66.692,-14.345 -0.17,0.635 -0.17,0.635 0,0 0,0"
             style="fill:#4d4d4d;fill-opacity:1;fill-rule:nonzero;stroke:none"
             id="path318" />
        </g>
      </g>
    </g>
  </g>
</svg>
