<?xml version="1.0" encoding="UTF-8" standalone="no"?>
<svg xmlns="http://www.w3.org/2000/svg" version="1.2" width="3464.000000pt" height="3464.000000pt" viewBox="0 0 3464.000000pt 3464.000000pt" preserveAspectRatio="xMidYMid meet">
  <g transform="translate(0.000000,3464.000000) scale(0.100000,-0.100000)" fill="#000000" stroke="none">
    <path d="M20807 23974 c-4 -4 -55 -11 -114 -15 -358 -28 -713 -115 -1098 -269 -325 -129 -710 -354 -929 -540 -22 -20 -61 -49 -85 -65 -61 -41 -401 -382 -451 -453 -22 -31 -59 -79 -81 -107 -107 -133 -286 -420 -376 -605 -241 -494 -356 -985 -356 -1520 0 -388 33 -630 138 -1015 65 -237 213 -580 349 -805 120 -200 200 -311 327 -453 25 -29 51 -61 57 -72 10 -20 113 -132 233 -253 81 -82 237 -215 349 -298 76 -57 189 -134 195 -134 3 0 43 -25 90 -55 184 -119 585 -304 820 -378 244 -77 470 -126 725 -158 114 -15 811 -15 920 0 177 23 218 30 310 49 535 113 1049 339 1475 650 55 40 126 94 157 120 31 26 90 74 130 106 204 166 433 430 643 741 41 60 164 272 200 345 73 146 175 393 175 424 0 13 9 49 21 82 23 68 78 270 90 329 4 22 13 67 19 100 40 198 53 353 52 625 0 281 -17 497 -51 660 -5 25 -14 70 -19 100 -6 30 -23 96 -37 145 -15 50 -33 113 -40 140 -8 28 -18 63 -24 78 -6 16 -11 39 -11 53 0 13 -17 66 -39 116 -21 51 -49 118 -61 148 -31 72 -166 337 -191 371 -10 15 -19 30 -19 34 0 10 -117 182 -205 299 -82 111 -297 351 -384 429 -25 23 -80 74 -122 112 -94 87 -471 365 -495 365 -3 0 -18 8 -32 19 -73 51 -408 224 -528 272 -193 76 -411 145 -604 190 -199 46 -244 54 -490 80 -117 12 -623 23 -633 13z m539 -1462 c45 -6 99 -15 120 -20 21 -6 64 -15 94 -22 199 -40 441 -135 620 -243 128 -77 164 -103 327 -238 98 -81 242 -241 328 -364 22 -31 52 -73 68 -93 44 -57 156 -297 203 -437 51 -149 60 -186 101 -400 12 -65 9 -622 -5 -695 -36 -198 -48 -244 -98 -377 -114 -303 -290 -578 -511 -794 -129 -127 -229 -206 -380 -301 -105 -65 -288 -158 -314 -158 -8 0 -19 -4 -25 -9 -26 -24 -346 -115 -474 -134 -95 -14 -570 -14 -670 0 -266 39 -657 188 -871 333 -174 118 -353 277 -436 385 -26 33 -67 87 -93 120 -54 70 -120 170 -120 181 0 4 -7 15 -15 24 -30 33 -133 257 -173 375 -44 133 -65 214 -81 323 -6 39 -16 102 -22 140 -13 80 -6 504 9 607 12 76 64 295 87 360 72 213 191 439 323 615 76 101 299 322 397 395 129 95 135 99 237 159 189 113 450 204 713 250 50 8 113 20 140 25 63 11 413 7 521 -7z"></path>
    <path d="M10296 23795 c-15 -15 -16 -318 -16 -3434 0 -2718 3 -3421 13 -3434 11 -16 108 -17 1542 -13 967 3 1576 8 1655 15 220 19 374 40 545 76 134 28 458 117 510 140 17 7 57 23 90 34 33 12 69 25 80 30 11 5 34 14 50 21 227 97 439 213 650 358 130 89 165 116 259 202 39 36 90 80 113 98 77 61 312 341 420 502 119 177 226 391 304 605 17 44 36 94 43 110 15 32 66 201 97 325 29 111 40 170 70 380 43 298 42 816 -1 1105 -5 39 -14 97 -18 130 -16 115 -64 297 -134 515 -93 287 -214 539 -365 765 -136 204 -202 282 -401 475 -169 165 -227 216 -307 270 -27 19 -69 49 -92 66 -56 43 -307 191 -413 244 -121 61 -346 155 -480 201 -175 61 -552 151 -725 174 -337 44 -412 46 -1977 51 -1360 4 -1498 3 -1512 -11z m3059 -1413 c166 -19 229 -30 355 -62 290 -72 510 -174 725 -333 98 -73 264 -234 311 -302 19 -27 57 -77 84 -110 92 -111 250 -464 250 -557 0 -15 7 -53 16 -85 36 -132 57 -352 56 -598 0 -248 -18 -426 -56 -568 -9 -32 -16 -71 -16 -87 0 -50 -96 -299 -152 -392 -66 -110 -142 -224 -177 -264 -20 -23 -55 -64 -79 -93 -44 -52 -123 -120 -261 -223 -70 -53 -352 -206 -411 -223 -14 -4 -38 -13 -55 -20 -119 -50 -335 -100 -550 -127 -44 -6 -404 -12 -799 -14 -662 -4 -720 -3 -737 12 -18 17 -19 84 -19 2022 0 1869 1 2007 17 2024 16 18 43 19 712 14 383 -2 737 -9 786 -14z"></path>
    <path d="M13068 16144 c-4 -3 -46 -10 -95 -15 -246 -26 -462 -74 -728 -163 -469 -158 -852 -376 -1262 -717 -73 -61 -316 -308 -398 -404 -68 -80 -241 -313 -260 -350 -9 -16 -33 -57 -54 -90 -54 -85 -110 -188 -149 -275 -54 -118 -141 -328 -168 -405 -32 -90 -122 -441 -136 -525 -5 -36 -14 -90 -19 -120 -50 -301 -40 -872 20 -1160 5 -25 12 -63 16 -85 3 -22 10 -56 15 -75 5 -19 16 -62 24 -95 23 -98 64 -235 91 -305 13 -36 36 -96 51 -135 25 -66 97 -232 149 -340 36 -75 92 -171 146 -253 27 -41 49 -76 49 -78 0 -5 53 -78 132 -183 106 -141 410 -461 513 -542 28 -22 84 -66 125 -99 76 -61 304 -216 415 -282 69 -42 423 -218 475 -237 19 -8 49 -19 65 -26 17 -8 80 -30 140 -49 111 -36 134 -43 215 -66 25 -7 56 -16 70 -21 70 -23 410 -79 585 -96 191 -19 742 -5 890 22 205 38 262 49 335 66 47 12 96 24 110 29 14 4 45 13 70 20 185 52 451 158 622 247 160 83 386 223 489 303 128 99 167 134 323 288 204 202 367 407 451 567 20 39 43 77 50 85 14 16 135 263 135 275 0 4 15 39 33 79 19 39 57 145 86 236 28 91 58 185 66 210 15 50 63 268 74 343 6 37 4 52 -6 63 -20 20 -1570 21 -1596 2 -9 -7 -28 -52 -42 -100 -25 -86 -104 -308 -128 -358 -6 -14 -24 -44 -39 -67 -15 -23 -28 -44 -28 -48 0 -9 -52 -85 -116 -170 -60 -80 -221 -240 -309 -308 -49 -38 -247 -157 -260 -157 -2 0 -32 -13 -67 -29 -139 -65 -336 -118 -528 -144 -168 -22 -592 -11 -735 18 -424 88 -781 277 -1050 558 -55 57 -116 124 -136 148 -55 67 -177 255 -215 330 -68 136 -143 350 -155 444 -5 39 -14 95 -20 125 -25 132 -32 243 -32 520 0 277 7 384 33 505 6 28 14 79 20 115 12 87 15 96 72 240 88 219 170 367 280 507 18 23 52 65 74 95 94 121 357 344 479 405 28 14 63 35 78 45 95 68 472 195 662 224 66 10 627 10 685 0 269 -47 555 -155 739 -279 149 -100 322 -265 400 -381 8 -11 24 -32 36 -46 24 -28 82 -123 115 -190 41 -81 128 -306 150 -389 16 -58 29 -86 45 -97 18 -12 134 -14 795 -12 l774 3 15 26 c16 30 14 46 -55 334 -100 418 -318 894 -544 1186 -19 25 -48 63 -65 85 -57 75 -241 267 -318 333 -200 169 -366 296 -460 351 -276 161 -284 166 -493 254 -228 96 -459 172 -639 208 -27 5 -70 14 -95 19 -47 10 -127 23 -245 41 -77 11 -827 23 -837 12z"></path>
    <path d="M20767 16144 c-4 -4 -47 -11 -95 -16 -113 -10 -183 -21 -362 -57 -25 -5 -79 -18 -120 -30 -41 -12 -106 -30 -145 -40 -242 -66 -644 -243 -890 -392 -160 -97 -316 -207 -425 -298 -47 -39 -107 -88 -135 -110 -62 -48 -213 -205 -280 -290 -46 -59 -70 -87 -180 -216 -106 -125 -263 -370 -362 -570 -196 -392 -330 -866 -358 -1265 -2 -41 -9 -106 -14 -145 -10 -68 -5 -167 20 -475 16 -201 46 -390 84 -532 8 -32 21 -82 29 -110 25 -96 106 -328 141 -403 7 -16 21 -50 31 -75 69 -175 310 -582 438 -740 20 -25 60 -74 89 -110 59 -73 356 -372 437 -440 53 -45 129 -102 252 -191 287 -207 781 -447 1113 -539 17 -5 64 -18 105 -30 301 -86 608 -124 1005 -124 437 -1 695 34 1090 146 178 50 440 151 570 219 260 135 404 221 595 355 144 101 175 126 353 290 264 244 470 496 658 809 67 111 189 362 204 419 8 32 23 76 34 99 32 72 108 316 139 447 44 182 63 293 79 445 11 113 8 641 -5 750 -30 247 -41 314 -86 485 -57 217 -75 279 -100 339 -13 31 -34 88 -46 126 -29 87 -162 357 -243 490 -113 186 -181 281 -348 484 -53 64 -357 363 -439 432 -201 167 -516 372 -750 486 -146 71 -423 183 -530 213 -249 71 -288 81 -370 98 -30 6 -68 14 -85 17 -50 11 -145 25 -240 36 -103 12 -847 23 -858 13z m743 -1462 c30 -5 80 -15 110 -20 176 -34 476 -154 670 -268 163 -96 439 -342 563 -499 221 -283 396 -678 440 -995 15 -104 14 -648 -1 -730 -32 -182 -127 -472 -207 -631 -40 -78 -74 -131 -170 -258 -38 -52 -79 -106 -89 -120 -75 -102 -317 -318 -461 -412 -246 -160 -505 -266 -780 -320 -221 -43 -648 -45 -850 -4 -141 29 -351 89 -369 106 -6 5 -17 9 -25 9 -21 0 -273 124 -346 171 -159 101 -206 140 -375 310 -167 169 -184 188 -264 306 -130 193 -244 448 -294 663 -57 244 -64 295 -69 525 -6 238 10 364 78 628 41 157 129 370 206 499 81 136 108 174 195 284 187 234 400 404 678 544 150 75 236 111 325 135 164 45 291 75 319 76 17 0 40 4 51 9 27 12 595 5 665 -8z"></path>
  </g>
  <title>Title</title>
</svg>
