<?xml version="1.0" encoding="utf-8" ?>
<svg baseProfile="tiny" height="1536" version="1.2" viewBox="0 0 1536 1536" width="1536" xmlns="http://www.w3.org/2000/svg" xmlns:ev="http://www.w3.org/2001/xml-events" xmlns:xlink="http://www.w3.org/1999/xlink"><defs /><rect fill="black" height="1536" width="1536" x="0" y="0" /><polygon fill="white" points="899.0,807.0 898.0,808.0 891.0,808.0 890.0,809.0 884.0,809.0 883.0,810.0 878.0,810.0 877.0,811.0 873.0,811.0 872.0,812.0 870.0,812.0 869.0,813.0 867.0,813.0 866.0,814.0 864.0,814.0 863.0,815.0 861.0,815.0 860.0,816.0 859.0,816.0 858.0,817.0 857.0,817.0 856.0,818.0 855.0,818.0 854.0,819.0 853.0,819.0 852.0,820.0 851.0,820.0 850.0,821.0 849.0,821.0 847.0,823.0 846.0,823.0 844.0,825.0 843.0,825.0 832.0,836.0 832.0,837.0 829.0,840.0 829.0,841.0 828.0,842.0 828.0,843.0 826.0,845.0 826.0,846.0 825.0,847.0 825.0,848.0 824.0,849.0 824.0,850.0 823.0,851.0 823.0,852.0 822.0,853.0 822.0,854.0 821.0,855.0 821.0,857.0 820.0,858.0 820.0,859.0 819.0,860.0 819.0,862.0 818.0,863.0 818.0,865.0 817.0,866.0 817.0,868.0 816.0,869.0 816.0,872.0 815.0,873.0 815.0,876.0 814.0,877.0 814.0,881.0 813.0,882.0 813.0,885.0 812.0,886.0 812.0,891.0 811.0,892.0 812.0,893.0 812.0,894.0 811.0,895.0 811.0,905.0 810.0,906.0 810.0,919.0 809.0,920.0 809.0,1035.0 810.0,1036.0 810.0,1049.0 811.0,1050.0 811.0,1062.0 812.0,1063.0 812.0,1069.0 813.0,1070.0 813.0,1074.0 814.0,1075.0 814.0,1078.0 815.0,1079.0 815.0,1082.0 816.0,1083.0 816.0,1085.0 817.0,1086.0 817.0,1089.0 818.0,1090.0 818.0,1092.0 819.0,1093.0 819.0,1095.0 820.0,1096.0 820.0,1097.0 821.0,1098.0 821.0,1100.0 822.0,1101.0 822.0,1102.0 823.0,1103.0 823.0,1104.0 824.0,1105.0 824.0,1106.0 825.0,1107.0 825.0,1108.0 826.0,1109.0 826.0,1110.0 827.0,1111.0 827.0,1112.0 829.0,1114.0 829.0,1115.0 831.0,1117.0 831.0,1118.0 844.0,1131.0 845.0,1131.0 847.0,1133.0 848.0,1133.0 850.0,1135.0 851.0,1135.0 852.0,1136.0 853.0,1136.0 854.0,1137.0 855.0,1137.0 856.0,1138.0 857.0,1138.0 858.0,1139.0 860.0,1139.0 861.0,1140.0 862.0,1140.0 863.0,1141.0 866.0,1141.0 867.0,1142.0 868.0,1142.0 869.0,1143.0 872.0,1143.0 873.0,1144.0 876.0,1144.0 877.0,1145.0 881.0,1145.0 882.0,1146.0 886.0,1146.0 887.0,1147.0 903.0,1147.0 904.0,1148.0 1017.0,1148.0 1018.0,1147.0 1034.0,1147.0 1035.0,1146.0 1041.0,1146.0 1042.0,1145.0 1044.0,1145.0 1045.0,1144.0 1049.0,1144.0 1050.0,1143.0 1052.0,1143.0 1053.0,1142.0 1055.0,1142.0 1056.0,1141.0 1058.0,1141.0 1059.0,1140.0 1061.0,1140.0 1062.0,1139.0 1064.0,1139.0 1065.0,1138.0 1066.0,1138.0 1067.0,1137.0 1068.0,1137.0 1069.0,1136.0 1070.0,1136.0 1071.0,1135.0 1072.0,1135.0 1074.0,1133.0 1075.0,1133.0 1077.0,1131.0 1078.0,1131.0 1085.0,1124.0 1086.0,1124.0 1087.0,1123.0 1087.0,1122.0 1090.0,1119.0 1090.0,1118.0 1093.0,1115.0 1093.0,1114.0 1095.0,1112.0 1095.0,1111.0 1096.0,1110.0 1096.0,1109.0 1097.0,1108.0 1097.0,1107.0 1098.0,1106.0 1098.0,1105.0 1099.0,1104.0 1099.0,1103.0 1100.0,1102.0 1100.0,1100.0 1101.0,1099.0 1101.0,1098.0 1102.0,1097.0 1102.0,1095.0 1103.0,1094.0 1103.0,1092.0 1104.0,1091.0 1104.0,1089.0 1105.0,1088.0 1105.0,1086.0 1106.0,1085.0 1106.0,1082.0 1107.0,1081.0 1107.0,1077.0 1108.0,1076.0 1108.0,1071.0 1109.0,1070.0 1109.0,1065.0 1110.0,1064.0 1110.0,1059.0 1111.0,1058.0 1111.0,1049.0 1112.0,1048.0 1112.0,1027.0 1113.0,1026.0 1113.0,931.0 1112.0,930.0 1112.0,906.0 1111.0,905.0 1111.0,897.0 1110.0,896.0 1110.0,890.0 1109.0,889.0 1109.0,885.0 1108.0,884.0 1108.0,879.0 1107.0,878.0 1107.0,874.0 1106.0,873.0 1106.0,870.0 1105.0,869.0 1105.0,867.0 1104.0,866.0 1104.0,864.0 1103.0,863.0 1103.0,861.0 1102.0,860.0 1102.0,858.0 1101.0,857.0 1101.0,856.0 1100.0,855.0 1100.0,853.0 1099.0,852.0 1099.0,851.0 1098.0,850.0 1098.0,849.0 1097.0,848.0 1097.0,847.0 1096.0,846.0 1096.0,845.0 1094.0,843.0 1094.0,842.0 1092.0,840.0 1092.0,839.0 1090.0,837.0 1090.0,836.0 1080.0,826.0 1079.0,826.0 1076.0,823.0 1075.0,823.0 1073.0,821.0 1072.0,821.0 1071.0,820.0 1070.0,820.0 1069.0,819.0 1068.0,819.0 1067.0,818.0 1066.0,818.0 1065.0,817.0 1064.0,817.0 1063.0,816.0 1062.0,816.0 1061.0,815.0 1059.0,815.0 1058.0,814.0 1056.0,814.0 1055.0,813.0 1053.0,813.0 1052.0,812.0 1050.0,812.0 1049.0,811.0 1045.0,811.0 1044.0,810.0 1039.0,810.0 1038.0,809.0 1032.0,809.0 1031.0,808.0 1024.0,808.0 1023.0,807.0" /><polygon fill="white" points="516.0,807.0 515.0,808.0 508.0,808.0 507.0,809.0 499.0,809.0 498.0,810.0 494.0,810.0 493.0,811.0 490.0,811.0 489.0,812.0 487.0,812.0 486.0,813.0 484.0,813.0 483.0,814.0 482.0,814.0 481.0,815.0 479.0,815.0 478.0,816.0 476.0,816.0 475.0,817.0 474.0,817.0 473.0,818.0 472.0,818.0 471.0,819.0 470.0,819.0 468.0,821.0 467.0,821.0 466.0,822.0 465.0,822.0 462.0,825.0 461.0,825.0 452.0,834.0 452.0,835.0 448.0,839.0 448.0,840.0 446.0,842.0 446.0,843.0 445.0,844.0 445.0,845.0 444.0,846.0 444.0,847.0 442.0,849.0 442.0,850.0 441.0,851.0 441.0,852.0 440.0,853.0 440.0,854.0 439.0,855.0 439.0,857.0 438.0,858.0 438.0,860.0 437.0,861.0 437.0,862.0 436.0,863.0 436.0,865.0 435.0,866.0 435.0,868.0 434.0,869.0 434.0,872.0 433.0,873.0 433.0,875.0 432.0,876.0 432.0,881.0 431.0,882.0 431.0,888.0 430.0,889.0 430.0,894.0 429.0,895.0 429.0,903.0 428.0,904.0 428.0,1052.0 429.0,1053.0 429.0,1061.0 430.0,1062.0 430.0,1067.0 431.0,1068.0 431.0,1075.0 432.0,1076.0 432.0,1080.0 433.0,1081.0 433.0,1084.0 434.0,1085.0 434.0,1087.0 435.0,1088.0 435.0,1090.0 436.0,1091.0 436.0,1093.0 437.0,1094.0 437.0,1096.0 438.0,1097.0 438.0,1099.0 439.0,1100.0 439.0,1101.0 440.0,1102.0 440.0,1103.0 441.0,1104.0 441.0,1105.0 442.0,1106.0 442.0,1107.0 443.0,1108.0 443.0,1109.0 445.0,1111.0 445.0,1112.0 446.0,1113.0 446.0,1114.0 447.0,1115.0 447.0,1116.0 450.0,1119.0 450.0,1120.0 460.0,1130.0 461.0,1130.0 465.0,1134.0 466.0,1134.0 468.0,1136.0 469.0,1136.0 470.0,1137.0 471.0,1137.0 472.0,1138.0 473.0,1138.0 474.0,1139.0 475.0,1139.0 476.0,1140.0 478.0,1140.0 479.0,1141.0 480.0,1141.0 481.0,1142.0 483.0,1142.0 484.0,1143.0 486.0,1143.0 487.0,1144.0 489.0,1144.0 490.0,1145.0 492.0,1145.0 493.0,1146.0 496.0,1146.0 497.0,1147.0 507.0,1147.0 508.0,1148.0 514.0,1148.0 515.0,1149.0 542.0,1149.0 543.0,1150.0 682.0,1150.0 683.0,1149.0 686.0,1149.0 687.0,1148.0 688.0,1148.0 689.0,1147.0 689.0,1146.0 690.0,1145.0 690.0,1144.0 691.0,1143.0 691.0,1141.0 692.0,1140.0 692.0,1101.0 691.0,1100.0 691.0,1097.0 690.0,1096.0 690.0,1095.0 689.0,1094.0 689.0,1093.0 688.0,1093.0 686.0,1091.0 525.0,1091.0 524.0,1090.0 517.0,1090.0 516.0,1089.0 513.0,1089.0 512.0,1088.0 509.0,1088.0 508.0,1087.0 507.0,1087.0 506.0,1086.0 505.0,1086.0 504.0,1085.0 503.0,1085.0 501.0,1083.0 500.0,1083.0 495.0,1078.0 495.0,1077.0 493.0,1075.0 493.0,1074.0 492.0,1073.0 492.0,1072.0 491.0,1071.0 491.0,1070.0 490.0,1069.0 490.0,1067.0 489.0,1066.0 489.0,1063.0 488.0,1062.0 488.0,1060.0 487.0,1059.0 487.0,1054.0 486.0,1053.0 486.0,1040.0 485.0,1039.0 485.0,916.0 486.0,915.0 486.0,902.0 487.0,901.0 487.0,897.0 488.0,896.0 488.0,893.0 489.0,892.0 489.0,890.0 490.0,889.0 490.0,887.0 491.0,886.0 491.0,884.0 493.0,882.0 493.0,881.0 495.0,879.0 495.0,878.0 501.0,872.0 502.0,872.0 504.0,870.0 505.0,870.0 506.0,869.0 507.0,869.0 508.0,868.0 511.0,868.0 512.0,867.0 514.0,867.0 515.0,866.0 682.0,866.0 683.0,865.0 685.0,865.0 686.0,864.0 687.0,864.0 690.0,861.0 690.0,859.0 691.0,858.0 691.0,857.0 692.0,856.0 692.0,817.0 691.0,816.0 691.0,813.0 690.0,812.0 690.0,811.0 687.0,808.0 685.0,808.0 684.0,807.0" /><polygon fill="white" points="893.0,388.0 892.0,389.0 887.0,389.0 886.0,390.0 881.0,390.0 880.0,391.0 876.0,391.0 875.0,392.0 873.0,392.0 872.0,393.0 869.0,393.0 868.0,394.0 866.0,394.0 865.0,395.0 863.0,395.0 862.0,396.0 860.0,396.0 859.0,397.0 858.0,397.0 857.0,398.0 856.0,398.0 855.0,399.0 854.0,399.0 853.0,400.0 852.0,400.0 850.0,402.0 849.0,402.0 848.0,403.0 847.0,403.0 843.0,407.0 842.0,407.0 831.0,418.0 831.0,419.0 829.0,421.0 829.0,422.0 828.0,423.0 828.0,424.0 826.0,426.0 826.0,427.0 825.0,428.0 825.0,429.0 824.0,430.0 824.0,431.0 823.0,432.0 823.0,433.0 822.0,434.0 822.0,435.0 821.0,436.0 821.0,438.0 820.0,439.0 820.0,441.0 819.0,442.0 819.0,443.0 818.0,444.0 818.0,446.0 817.0,447.0 817.0,450.0 816.0,451.0 816.0,453.0 815.0,454.0 815.0,457.0 814.0,458.0 814.0,461.0 813.0,462.0 813.0,466.0 812.0,467.0 812.0,473.0 811.0,474.0 811.0,485.0 810.0,486.0 810.0,499.0 809.0,500.0 809.0,615.0 810.0,616.0 810.0,630.0 811.0,631.0 811.0,642.0 812.0,643.0 811.0,644.0 812.0,645.0 812.0,650.0 813.0,651.0 813.0,654.0 814.0,655.0 814.0,659.0 815.0,660.0 815.0,663.0 816.0,664.0 816.0,666.0 817.0,667.0 817.0,670.0 818.0,671.0 818.0,673.0 819.0,674.0 819.0,675.0 820.0,676.0 820.0,678.0 821.0,679.0 821.0,681.0 822.0,682.0 822.0,683.0 823.0,684.0 823.0,685.0 824.0,686.0 824.0,687.0 825.0,688.0 825.0,689.0 826.0,690.0 826.0,691.0 828.0,693.0 828.0,694.0 830.0,696.0 830.0,697.0 832.0,699.0 832.0,700.0 844.0,712.0 845.0,712.0 847.0,714.0 848.0,714.0 850.0,716.0 852.0,716.0 853.0,717.0 854.0,717.0 855.0,718.0 856.0,718.0 857.0,719.0 858.0,719.0 859.0,720.0 861.0,720.0 862.0,721.0 863.0,721.0 864.0,722.0 866.0,722.0 867.0,723.0 869.0,723.0 870.0,724.0 872.0,724.0 873.0,725.0 877.0,725.0 878.0,726.0 882.0,726.0 883.0,727.0 889.0,727.0 890.0,728.0 898.0,728.0 899.0,729.0 1022.0,729.0 1023.0,728.0 1030.0,728.0 1031.0,727.0 1037.0,727.0 1038.0,726.0 1044.0,726.0 1045.0,725.0 1049.0,725.0 1050.0,724.0 1052.0,724.0 1053.0,723.0 1055.0,723.0 1056.0,722.0 1058.0,722.0 1059.0,721.0 1060.0,721.0 1061.0,720.0 1063.0,720.0 1064.0,719.0 1066.0,719.0 1067.0,718.0 1068.0,718.0 1069.0,717.0 1070.0,717.0 1072.0,715.0 1073.0,715.0 1075.0,713.0 1076.0,713.0 1078.0,711.0 1079.0,711.0 1090.0,700.0 1090.0,699.0 1092.0,697.0 1092.0,696.0 1094.0,694.0 1094.0,693.0 1096.0,691.0 1096.0,690.0 1097.0,689.0 1097.0,688.0 1098.0,687.0 1098.0,686.0 1099.0,685.0 1099.0,684.0 1100.0,683.0 1100.0,681.0 1101.0,680.0 1101.0,679.0 1102.0,678.0 1102.0,676.0 1103.0,675.0 1103.0,673.0 1104.0,672.0 1104.0,670.0 1105.0,669.0 1105.0,667.0 1106.0,666.0 1106.0,663.0 1107.0,662.0 1107.0,658.0 1108.0,657.0 1108.0,651.0 1109.0,650.0 1109.0,646.0 1110.0,645.0 1110.0,640.0 1111.0,639.0 1111.0,630.0 1112.0,629.0 1112.0,608.0 1113.0,607.0 1113.0,512.0 1112.0,511.0 1112.0,487.0 1111.0,486.0 1111.0,478.0 1110.0,477.0 1110.0,472.0 1109.0,471.0 1109.0,466.0 1108.0,465.0 1108.0,460.0 1107.0,459.0 1107.0,455.0 1106.0,454.0 1106.0,451.0 1105.0,450.0 1105.0,448.0 1104.0,447.0 1104.0,445.0 1103.0,444.0 1103.0,442.0 1102.0,441.0 1102.0,439.0 1101.0,438.0 1101.0,437.0 1100.0,436.0 1100.0,434.0 1099.0,433.0 1099.0,432.0 1098.0,431.0 1098.0,430.0 1097.0,429.0 1097.0,428.0 1096.0,427.0 1096.0,426.0 1095.0,425.0 1095.0,424.0 1093.0,422.0 1093.0,421.0 1090.0,418.0 1090.0,417.0 1080.0,407.0 1079.0,407.0 1076.0,404.0 1075.0,404.0 1072.0,401.0 1071.0,401.0 1070.0,400.0 1068.0,400.0 1067.0,399.0 1066.0,399.0 1065.0,398.0 1064.0,398.0 1063.0,397.0 1062.0,397.0 1061.0,396.0 1060.0,396.0 1059.0,395.0 1057.0,395.0 1056.0,394.0 1054.0,394.0 1053.0,393.0 1050.0,393.0 1049.0,392.0 1046.0,392.0 1045.0,391.0 1042.0,391.0 1041.0,390.0 1036.0,390.0 1035.0,389.0 1029.0,389.0 1028.0,388.0 1025.0,388.0 1024.0,389.0 1023.0,388.0" /><polygon fill="white" points="456.0,388.0 455.0,389.0 453.0,389.0 452.0,390.0 450.0,390.0 449.0,391.0 448.0,391.0 447.0,392.0 446.0,392.0 445.0,393.0 444.0,393.0 442.0,395.0 441.0,395.0 435.0,401.0 435.0,402.0 433.0,404.0 433.0,405.0 432.0,406.0 432.0,407.0 431.0,408.0 431.0,410.0 430.0,411.0 430.0,413.0 429.0,414.0 429.0,703.0 430.0,704.0 430.0,706.0 431.0,707.0 431.0,709.0 432.0,710.0 432.0,711.0 433.0,712.0 433.0,713.0 435.0,715.0 435.0,716.0 442.0,723.0 443.0,723.0 444.0,724.0 445.0,724.0 446.0,725.0 448.0,725.0 449.0,726.0 451.0,726.0 452.0,727.0 453.0,727.0 454.0,728.0 458.0,728.0 459.0,729.0 615.0,729.0 616.0,728.0 625.0,728.0 626.0,727.0 631.0,727.0 632.0,726.0 639.0,726.0 640.0,725.0 644.0,725.0 645.0,724.0 647.0,724.0 648.0,723.0 650.0,723.0 651.0,722.0 653.0,722.0 654.0,721.0 655.0,721.0 656.0,720.0 658.0,720.0 659.0,719.0 660.0,719.0 661.0,718.0 662.0,718.0 663.0,717.0 665.0,717.0 667.0,715.0 668.0,715.0 669.0,714.0 670.0,714.0 672.0,712.0 673.0,712.0 675.0,710.0 676.0,710.0 680.0,706.0 681.0,706.0 691.0,696.0 691.0,695.0 693.0,693.0 693.0,692.0 695.0,690.0 695.0,689.0 697.0,687.0 697.0,686.0 698.0,685.0 698.0,684.0 700.0,682.0 700.0,681.0 701.0,680.0 701.0,679.0 702.0,678.0 702.0,676.0 703.0,675.0 703.0,673.0 705.0,671.0 705.0,669.0 706.0,668.0 706.0,666.0 707.0,665.0 707.0,663.0 708.0,662.0 708.0,660.0 709.0,659.0 709.0,657.0 710.0,656.0 710.0,652.0 711.0,651.0 711.0,648.0 712.0,647.0 712.0,642.0 713.0,641.0 713.0,636.0 714.0,635.0 714.0,628.0 715.0,627.0 715.0,618.0 716.0,617.0 716.0,606.0 717.0,605.0 717.0,512.0 716.0,511.0 716.0,499.0 715.0,498.0 715.0,490.0 714.0,489.0 714.0,481.0 713.0,480.0 713.0,476.0 712.0,475.0 712.0,469.0 711.0,468.0 711.0,465.0 710.0,464.0 710.0,461.0 709.0,460.0 709.0,458.0 708.0,457.0 708.0,452.0 707.0,451.0 707.0,450.0 706.0,449.0 706.0,447.0 705.0,446.0 705.0,445.0 704.0,444.0 704.0,443.0 703.0,442.0 703.0,440.0 702.0,439.0 702.0,438.0 701.0,437.0 701.0,436.0 700.0,435.0 700.0,434.0 699.0,433.0 699.0,432.0 698.0,431.0 698.0,430.0 697.0,429.0 697.0,428.0 695.0,426.0 695.0,425.0 693.0,423.0 693.0,422.0 678.0,407.0 677.0,407.0 675.0,405.0 674.0,405.0 672.0,403.0 671.0,403.0 670.0,402.0 669.0,402.0 667.0,400.0 666.0,400.0 665.0,399.0 664.0,399.0 663.0,398.0 661.0,398.0 660.0,397.0 659.0,397.0 658.0,396.0 656.0,396.0 655.0,395.0 653.0,395.0 652.0,394.0 650.0,394.0 649.0,393.0 647.0,393.0 646.0,392.0 643.0,392.0 642.0,391.0 639.0,391.0 638.0,390.0 634.0,390.0 633.0,389.0 629.0,389.0 628.0,388.0" /></svg>